<svg width="687.186" height="233.594" viewBox="0 0 181.818 61.805" xml:space="preserve" xmlns="http://www.w3.org/2000/svg"><defs><clipPath clipPathUnits="userSpaceOnUse" id="a"><path d="M0 595.28h841.89V0H0Z" transform="translate(-435.975 -375.926)"/></clipPath><clipPath clipPathUnits="userSpaceOnUse" id="b"><path d="M0 595.28h841.89V0H0Z" transform="translate(-682.622 -238.023)"/></clipPath></defs><path d="m1451.266 92.906-.068 1.148.14 3.658v1.22l-.14 2.44-.218 1.794-.216 1.076-.428 1.65-.362 1.004-.5 1.508-.502 1.076-.573 1.076-.65 1.076-1.073 1.363-.717.933-1.076 1.148-.79.79-1.222 1.076-.857.646-1.364.86-.934.575-1.508.717-1.006.431-1.647.501-1.007.288-1.65.287-1.075.215-1.792.144-2.441.142-1.219-.07-1.652-.072-3.66-.503-2.653-.573-2.511-.79-2.584-.933-1.363-.717-.933-.574-1.29-1.005-.791-.717-1.078-1.22-.644-.79-.861-1.362-.503-.934-.717-1.506-.359-1.076-.717-2.296-.287-1.794-.214-1.148-.072-1.65-.073-1.22v-1.22l.288-.932.79-.287 1.076-.072h3.23l3.228.143 1.146-.07 2.152-.217 1.15-.072.861.43.359.79.07.933.073.502.217 1.005.5 1.65.43 1.005.502.932.717.933 1.367 1.22 1.003.645 1.077.503 1.148.287 1.724.216 1.073-.074 2.152-.429 1.007-.359 1.001-.5 1.007-.576 1.364-1.149.79-.86.645-1.076.429-1.077.361-1.579.139-1.076.073-1.65v-1.075l.071-4.306v-1.148l.073-4.377v-1.148l.072-4.305.073-1.004-.575-.287-3.304.215h-1.145l-3.227-.215h-1.15l-2.298.215h-1.002l-.862-.359-.429-.861v-.43l-.072-1.077.217-3.013v-1.148l-.217-3.372.072-1.076.43-.79.86-.286h1.509l2.869.142h1.148l4.304-.358 1.148-.072 4.232.142h6.604l3.297-.142h1.08l.718.214.284.432.07.788.074 1.006.072 1.076.073 1.65-.073 1.148-.216 3.587v1.148l.216 3.66.073 1.148.07 3.66-.07 1.147zM1501.211 95.13v-1.22l-.072-1.22-.072-1.148-.43-2.152-.287-1.006-.79-1.578-.574-.932-1.007-1.29-.717-.79-1.075-1.148-.788-.647-1.865-1.076-1.007-.43-1.145-.36-1.151-.215-2.293-.143-1.079.072-1.579.07-1.074.217-1.864.502-1.151.431-1.648.861-1.005.646-1.147 1.004-.79.861-.79 1.076-.572.932-.217.432-.646 1.505-.36 1.078-.213.501-.217 1.005-.143 1.004-.073 1.004-.072 1.078v1.076l.072 1.148.216 1.148.073.645.29 1.076.138.503.361 1.005.286.573.576 1.006.357.573.79 1.005.429.502.861.861 1.436 1.22 1.005.645 1.148.574 1.078.432 1.502.501 1.079.216 1.793.215 1.223.07 1.79-.142 1.147-.143 1.579-.359 1.007-.432 1.58-1.004.857-.645 1.152-1.148.717-.79.93-1.147.645-1.004.717-1.579.434-1.077.356-1.65.145-1.076zm15.07-1.22-.073 1.148-.144 1.65-.145 1.076-.43 2.152-.142 1.651-.145 1.076-.218 1.15-.284 1.075-.717 1.507-.501 1.005-1.94 3.228-.646.932-.717.934-.719.79-1.145 1.218-.79.717-.934.717-.857.647-1.296.861-.93.574-1.078.574-1.003.431-1.435.573-1.078.287-2.296.719-1.219.358-1.148.287-1.223.288-1.218.213-1.219.074h-3.876l-2.437-.144-2.37-.288-1.002-.214-1.078-.288-3.872-1.292-1.152-.358-1.218-.503-2.296-1.004-1.075-.573-1.079-.647-.929-.717-.935-.79-.862-.932-.788-.933-1.938-1.937-.717-.86-.717-.935-.574-.932-.573-1.435-1.079-3.228-.428-1.508-.217-1.076-.216-1.148-.212-1.076-.216-1.578-.073-1.076-.072-1.22v-1.22l.072-1.22.073-1.29.143-1.22.217-1.22.284-1.22.36-1.22.357-1.077.43-1.148.505-1.65.501-1.149.288-.644.575-1.077 1.001-1.579.718-1.004.36-.574.862-.86 1.219-1.006.935-.717.929-.647 2.153-1.434.934-.574 1.006-.574 1.003-.502 1.507-.646 1.005-.359 1.075-.359 1.08-.286 2.724-.502 1.074-.216 3.59-.43 2.296-.144 2.152.144 1.721.072 1.223.142 1.218.216 1.219.287 1.219.215 1.149.286 1.075.288 1.078.36 1.507.574 1.003.43 2.369 1.363.935.645.929.718 1.219 1.148.789.717.79.79.646.86 1.005 1.365.574.932.501.933.577.932.786 1.435.578.933.5 1.077.356 1.004.363 1.651.428 2.152.144 1.22.216 1.22zM1551.224 92.188l.93-.358.863-.503.718-.861.505-1.076.284-1.148.072-1.148-.072-1.22-.145-1.22-.284-1.076-.506-1.078-.645-.86-.79-.645-1.002-.43-1.579-.36-1.146-.143-3.588-.071h-1.15l-3.657.215-.861.072-.502.214-.433.431-.072.79.072 1.65.144 1.148.145 1.219.071 1.22-.142 3.946.072.79.144.43.501.215.861.144 3.728.287h1.152l4.732-.287zm20.16 27.911-.93.287h-5.022l-3.95-.072h-1.146l-3.23.145h-.93l-.647-.288-.572-.575-2.297-3.228-.645-.861-2.298-3.085-.645-.862-2.008-3.3-.645-.86-2.298-3.086-.5-.574-.433-.216-.863-.072-2.293-.142-.935.072-.572.43-.217.932-.144 3.946.072 1.149.29 4.017.07 1.148.073 1.723v1.148l-.073 1.148-.142.86-.363.36-.788.216h-1.148l-3.443-.216-3.298.216h-1.152l-3.298-.216-.862-.144-.43-.287-.144-.718-.072-1.004-.072-1.076.144-1.866.072-1.148.284-3.874v-1.148l-.212-3.874-.072-1.149-.072-3.803v-1.148l.218-3.874v-1.148l-.218-3.875v-1.148l.218-3.875v-1.148l.138-3.802v-1.148l-.068-3.875v-1.147l-.144-2.369.073-1.076.071-.43.214-.933.433-.574.857-.215.578-.072 1.074-.072 3.231.144 8.535.287 4.882-.287h1.147l4.735.287h2.725l1.223.07 1.074.216 1.507.431 1.075.359 1.078.43 1.147.431 1.079.503.929.573 1.367.933.785.646.717.718.719.86 1.005 1.435.647.933.861 1.363.502 1.004.501 1.077.361 1.148.216 1.148.067 1.148.146 1.579v1.147l-.072 1.149-.14 1.22-.216 1.219-.29 1.148-.429 1.076-.5 1.077-.647 1.076-.649.933-.645.86-.646.79-1.146 1.148-.79.645-1.434.79-.863.502-.93.503-.934.216-.573.214.284.574 2.585 3.66.647.86 2.581 3.516.717.861 2.582 3.588.718.861 2.224 2.583.646.79.361.789zM1626.638 79.847l-.073 1.148v10.619l.217 4.161v1.148l.146 9.472v1.219l-.073.575-.072 1.218-.218 3.446.073 4.16-.073 1.005-.284.861-.577.79-.717.502-.646.215-1.002.072-3.66.144-1.146.07-1.797.073h-1.145l-.934-.215-.862-.359-.858-.646-.65-.932-1.074-2.082-.646-.933-2.798-3.515-.717-.861-2.799-3.443-.644-.934-2.514-3.731-.647-.86-2.796-3.445-.719-.86-2.654-3.516-.644-.575-.502.216-.216.86-.144 3.588v1.148l.071 3.587v1.149l.073 4.017v1.148l-.217 4.019.073 1.148.428 2.87.073 1.147-.215.934-.504.502-.5.143-.862.144-.575.072-1.217.072-3.299-.072h-1.152l-2.943.143h-1.145l-1.079-.071-.785-.144-.577-.359-.286-.502-.144-.718-.072-.502V117.3l.144-2.368.072-1.148-.216-3.803v-1.148l.144-8.753.072-1.15.212-3.801.073-1.148v-4.95l-.285-3.803V84.08l.285-3.803-.073-1.148-.284-3.875-.072-1.148v-1.65l.072-1.078.146-1.074.138-.791.218-.501.433-.216.785-.143 2.154-.143 2.152.143h5.384l.861.07.357.289.428.645 3.016 3.23.718.86 2.653 3.445.717.86 2.66 3.517.716.86 2.582 3.588.645.86 2.727 3.444.717.861 2.581 3.588.578.502.573.073.5-.36v-.79l-.5-3.013-.072-1.148.216-3.085v-1.148l-.288-4.376v-1.148l.288-4.377-.072-1.148-.216-2.655v-1.793l.216-.934.284-.574.505-.286.858-.144h.646l1.223-.072 3.227.216h1.15l2.438-.144 1.078.07 1.647.074.79.143.502.216.432.501.145 1.004.071.647.07 1.22-.14 2.224-.146 1.148zM1669.191 98.071l-.289-.932-1.579-4.88-.357-1.076-1.435-4.233-.36-.932-.718-.503-.93-.215-.79.215-.718.717-1.936 4.88-.433 1.076-1.864 4.807-.216 1.076.216.861.79.36 1.002.143h4.523l3.37.215.934-.287.574-.575zm23.966 20.235.216 1.004-.506.79-.79.36-.93.142h-1.006l-1.65-.143-1.076-.073h-3.226l-4.45.286-.934-.358-.43-.502-.36-.789-2.226-6.028-.5-.717-.646-.143-.862-.072-4.306-.287h-1.145l-5.381-.144-4.304-.072h-1.079l-1.073.072h-3.306l-.929.144-.573.36-.432.86-1.648 4.88-.434 1.147-.789.932-1.075.359h-1.15l-4.16-.215h-1.148l-4.45.287-.929.073-.861-.432-.575-.79.07-.931.143-.575.432-1.148 1.003-2.224.432-1.076 1.792-4.019.43-1.004 1.868-4.018.428-1.076 1.651-3.875.43-1.076 1.94-4.019.429-1.004 2.581-5.884 2.008-4.304.505-1.149 1.576-3.228.506-1.148 1.362-3.3.43-1.077 1.29-2.942.362-.789.717-.43 1.075-.217 3.302-.142h5.596l3.3.072 1.22.216.788.572.36.933 1.003 2.799.433 1.076 1.792 3.373.432 1.004 1.576 3.516.434 1.004 1.29 3.659.428 1.005 1.58 3.444.43 1.004 1.58 3.516.433 1.005 1.435 3.587.428 1.005 2.225 4.448 1.719 3.372.505 1.006 1.937 4.52zM1734.13 102.018l.5-1.076.433-1.22.286-1.076.288-1.579.073-1.004.07-1.65v-2.297l-.07-1.148-.219-1.65-.282-1.076-.146-.43-.572-1.077-1.078-1.507-.358-.358-.717-.79-.79-.789-.862-.645-1.58-.934-1.003-.43-1.004-.215-1.148-.216-1.794-.072-1.22-.07h-1.791l-1.58-.073-1.079.072-1.574.215-.791.215-.36.358-.216.862-.07.646-.071 1.076.141 2.152.071 1.148.146 1.58.144 1.147.072 1.148v1.148l-.072 1.579v3.444l-.073 1.22-.071 1.148-.146 1.578v1.004l-.07 1.651.07 1.076.216 1.721.29.79.428.358.862.074 6.67-.432 1.653-.071 1.145-.216 1.223-.359 1.148-.43 1.077-.503.93-.645 1.292-1.148.718-.862zm16.36-6.17-.072 1.22-.073 1.72-.212 1.148-.505 1.651-.357 1.148-.432 1.077-.43 1.147-.428 1.22-.433 1.076-.79 1.579-.574.933-1.001 1.148-.718.79-1.222 1.147-1.576 1.58-.935.787-1.361 1.076-.935.576-1.436.788-.933.43-1.575.575-1.079.36-1.146.286-1.152.214-4.372.647-1.08.072-1.58.143h-1.146l-2.296-.072-1.865-.143h-1.145l-2.298.143-1.796.072-1.218.073-1.075-.073h-5.023l-1.078-.072-3.083-.287-.577-.287-.358-.358-.142-.79-.073-1.148.073-.573.142-2.153v-1.004l.073-1.65v-1.077l.071-1.148v-1.15l-.07-3.8v-1.149l-.146-3.804.072-1.076.073-1.577.144-1.077.068-1.219v-1.15l-.141-1.865-.071-1.218v-.647l-.073-1.22.285-3.803v-1.148l-.068-3.802v-1.148l-.217-3.803v-2.799l.073-1.148.212-1.076.144-.789.289-.43.79-.217 1.218-.142 1.079-.144 1.146-.07 6.314.07h1.146l3.444.216.576.07h1.292l3.015-.142 1.073-.07h1.147l1.797.142 2.296.142 1.147.144 1.864.288 1.15.214 1.075.288 2.584.933 1.076.503 1.074.573 1.006.573 2.37 1.651.929.79.863.717 1.578 1.506.718.72.646.787.502.933.789 1.58.433 1.075.356 1.148.43 1.148.36 1.148.289 1.148.285 1.579.216 1.148.216 1.22.14 1.148.072 1.721.073 1.15zM1786.296 98.071l-.284-.932-1.579-4.88-.361-1.076-1.435-4.233-.357-.932-.718-.503-.934-.215-.79.215-.718.717-1.935 4.88-.43 1.076-1.869 4.807-.212 1.076.212.861.791.36 1.007.143h4.517l3.376.215.93-.287.577-.575zm23.965 20.235.216 1.004-.5.79-.79.36-.934.142h-1.003l-1.65-.143-1.08-.073h-3.227l-4.45.286-.929-.358-.433-.502-.357-.789-2.226-6.028-.501-.717-.644-.143-.863-.072-4.305-.287h-1.147l-5.384-.144-4.305-.072h-1.075l-1.077.072h-3.3l-.933.144-.574.36-.429.86-1.65 4.88-.431 1.147-.79.932-1.077.359h-1.147l-4.162-.215h-1.15l-4.445.287-.935.073-.861-.432-.573-.79.072-.931.144-.575.429-1.148 1.005-2.224.43-1.076 1.796-4.019.429-1.004 1.864-4.018.433-1.076 1.647-3.875.435-1.076 1.936-4.019.428-1.004 2.585-5.884 2.008-4.304.501-1.149 1.58-3.228.502-1.148 1.362-3.3.432-1.077 1.292-2.942.358-.789.717-.43 1.077-.217 3.3-.142h5.595l3.305.072 1.218.216.79.572.356.933 1.007 2.799.428 1.076 1.796 3.373.43 1.004 1.58 3.516.427 1.004 1.291 3.659.433 1.005 1.58 3.444.43 1.004 1.58 3.516.428 1.005 1.434 3.587.43 1.005 2.224 4.448 1.724 3.372.501 1.006 1.936 4.52zM1857.837 104.314l-.073 1.22-.138 1.22-.216 1.148-.363 1.579-.356 1.004-.645 1.434-.506.934-.857 1.29-.717.862-.863.861-.861.79-1.435.933-.93.644-1.08.574-1.005.503-1.65.573-2.151.719-1.15.215-1.793.286-1.073.144-1.58.143-1.007.072-1.646.073-3.448.214h-1.576l-1.007-.071-1.65-.143-1.075-.145-1.22-.215-1.076-.358-1.58-.503-1.003-.501-1.077-.503-1.003-.503-.935-.574-2.296-1.578-.858-.718-1.295-1.004-.857-.718-.791-.789-.573-.645-.071-.503.354-.645.29-.359.717-.79 2.01-1.865.643-.789 1.22-1.865.646-.79.717-.789.79-.43.79.142.79.575 2.297 1.578 1.074.574 1.007.502 1.647.79 1.078.358 1.147.359 1.15.215 1.647.072 1.151.072 4.517-.287 1.152-.144.572-.143 1.075-.43.933-.575.718-.717.357-.502.433-1.077-.073-1.22-.142-.573-.575-1.006-.36-.429-.93-.717-.573-.216-1.078-.431-1.22-.287-1.218-.214-6.818-.647-2.154-.43-1.146-.287-1.58-.575-1.074-.359-1.077-.501-2.439-1.22-.934-.645-1.078-.647-.93-.645-1.22-1.004-.648-.934-.644-1.076-.431-1.077-.501-1.505-.216-1.076-.216-1.579-.14-2.296.067-1.15.145-1.72.217-1.077.284-.933.36-1.076.718-1.579.5-1.004.574-.861.718-.79 1.15-1.077.93-.717.936-.645 1.005-.502 1.363-.79 2.153-.86 1.075-.359 1.65-.287 1.147-.216 2.153-.286 1.58-.287 1.146-.144 1.08-.072h1.145l2.152.216 1.08.144.5.143 1.147.144 2.44.43 1.22.287 1.15.359 1.219.358 1.147.43 1.078.504 1.074.429 1.364.79 1.006.502.93.645.649.646v.718l-.433.79-.79 1.434-.574.86-2.724 3.588-.791 1.006-.863.717-.572.216-.501-.073-.719-.359-1.077-.645-1.075-.431-.501-.215-1.077-.358-.574-.144-1.218-.287-1.652-.359-1.147-.072-1.868-.144h-1.865l-1.218.072-1.222.216-1.147.359-.428.215-.863.646-.361.43-.5 1.004-.145 1.149.217.933.572.931.79.717.862.432.501.215 1.079.215 1.792.216 2.441.144 1.219.214 2.437.575 2.298.717 1.65.359 1.075.287 2.008.717 1.436.647 1.007.502 1.005.572.93.575 2.08 1.723.79.861.717.861.863 1.291.573.932.5 1.077.29 1.076.289 1.579.139 1.076zM1435.059 162.918v-.784l-.047-.785-.047-.737-.276-1.386-.187-.645-.507-1.015-.368-.6-.646-.83-.462-.508-.693-.74-.51-.414-1.197-.692-.644-.277-.74-.23-.738-.138-1.478-.092-.693.045-1.015.047-.692.137-1.2.323-.734.277-1.063.555-.647.415-.738.646-.507.554-.508.692-.37.6-.138.276-.415.969-.232.692-.138.323-.138.646-.095.646-.044.646-.047.692v.692l.047.739.139.737.047.416.183.692.093.324.232.646.184.369.368.645.23.37.508.645.279.324.55.553.923.786.646.414.738.37.694.276.97.324.694.137 1.15.139.786.046 1.154-.092.739-.093 1.016-.23.644-.277 1.016-.646.552-.416.737-.738.463-.508.599-.737.417-.647.461-1.014.278-.692.228-1.062.095-.692zm9.689-.784-.048.739-.093 1.06-.092.692-.276 1.384-.095 1.063-.088.692-.14.737-.183.693-.464.97-.321.644-1.25 2.077-.411.6-.463.6-.461.51-.74.782-.506.461-.598.464-.556.41-.828.558-.604.37-.691.368-.645.276-.923.369-.69.183-1.48.464-.785.229-.738.187-.782.182-.785.14-.785.047h-2.492l-1.568-.093-1.524-.183-.646-.14-.692-.188-2.492-.828-.737-.23-.784-.325-1.479-.645-.69-.37-.694-.411-.598-.464-.6-.51-.554-.597-.508-.6-1.246-1.247-.46-.554-.462-.6-.37-.6-.368-.922-.692-2.077-.276-.968-.14-.692-.138-.739-.138-.692-.138-1.016-.047-.692-.048-.784v-.784l.048-.785.047-.83.091-.785.139-.784.184-.784.23-.784.233-.692.276-.74.322-1.061.323-.737.185-.415.368-.692.648-1.016.46-.645.232-.371.552-.553.786-.646.598-.461.602-.416 1.385-.923.6-.37.645-.367.646-.324.969-.415.647-.23.692-.231.692-.185 1.752-.323.693-.139 2.304-.276 1.479-.093 1.384.093 1.108.046.785.092.785.138.782.184.785.14.739.184.692.184.693.232.968.368.645.278 1.524.876.599.414.599.463.785.739.51.46.506.508.415.553.645.877.37.6.322.6.37.6.509.923.37.6.323.692.23.645.227 1.062.28 1.385.091.783.139.785zM1470.686 167.348l.327-.692.276-.784.183-.692.186-1.016.048-.647.041-1.06v-1.477l-.04-.738-.142-1.06-.185-.694-.091-.276-.37-.692-.692-.97-.233-.23-.459-.507-.51-.508-.551-.416-1.015-.6-.645-.276-.65-.139-.734-.137-1.156-.048-.784-.045h-1.156l-1.013-.047-.694.047-1.014.138-.506.14-.233.23-.136.553-.047.416-.047.692.093 1.384.047.737.089 1.016.093.738.047.738v.74l-.047 1.014v2.214l-.047.786-.047.737-.09 1.016v.645l-.046 1.062.047.692.136 1.106.186.51.276.23.552.046 4.292-.276 1.062-.047.74-.139.785-.23.733-.276.694-.324.602-.416.828-.738.463-.553zm10.523-3.968-.048.784-.047 1.108-.135.737-.322 1.061-.235.74-.276.691-.275.739-.276.784-.276.692-.51 1.016-.37.6-.645.737-.464.508-.781.739-1.014 1.013-.602.51-.876.691-.603.371-.92.504-.599.281-1.016.368-.692.23-.737.184-.74.138-2.815.416-.692.048-1.016.088h-.737l-1.479-.04-1.196-.096h-.74l-1.477.095-1.15.041-.787.047-.691-.047h-3.232l-.69-.04-1.985-.189-.37-.183-.228-.233-.093-.505-.047-.738.047-.369.093-1.385v-.644l.043-1.064v-.692l.047-.739v-.737l-.047-2.446v-.738l-.09-2.447.048-.692.043-1.015.093-.692.047-.785v-.737l-.093-1.2-.047-.786v-.414l-.043-.784.182-2.446v-.738l-.047-2.446v-.737l-.136-2.445v-1.802l.043-.737.14-.692.093-.508.183-.277.51-.138.78-.092.697-.092.734-.046 4.064.046h.739l2.21.138.371.047h.832l1.936-.092.694-.047h.737l1.155.092 1.474.092.739.092 1.201.185.739.139.692.184 1.66.6.693.322.69.37.648.37 1.522 1.06.6.508.552.462 1.019.968.458.462.418.507.321.6.51 1.015.277.693.23.737.275.74.232.738.183.738.188 1.014.135.738.14.784.093.74.043 1.107.047.739zM1511.72 162.918v-.784l-.047-.785-.047-.737-.276-1.386-.187-.645-.505-1.015-.37-.6-.646-.83-.461-.508-.694-.74-.509-.414-1.197-.692-.644-.277-.74-.23-.739-.138-1.477-.092-.692.045-1.016.047-.69.137-1.202.323-.735.277-1.063.555-.645.415-.739.646-.509.554-.505.692-.37.6-.14.276-.416.969-.229.692-.141.323-.135.646-.095.646-.047.646-.045.692v.692l.045.739.141.737.047.416.183.692.093.324.23.646.185.369.366.645.234.37.505.645.281.324.551.553.921.786.646.414.738.37.694.276.97.324.694.137 1.15.139.786.046 1.154-.092.74-.093 1.015-.23.644-.277 1.016-.646.552-.416.737-.738.463-.508.599-.737.417-.647.461-1.014.278-.692.228-1.062.095-.692zm9.69-.784-.049.739-.092 1.06-.093.692-.276 1.384-.095 1.063-.088.692-.14.737-.182.693-.464.97-.322.644-1.249 2.077-.41.6-.465.6-.46.51-.74.782-.506.461-.599.464-.556.41-.828.558-.604.37-.69.368-.646.276-.921.369-.692.183-1.479.464-.785.229-.739.187-.781.182-.786.14-.785.047h-2.492l-1.568-.093-1.524-.183-.645-.14-.69-.188-2.496-.828-.737-.23-.781-.325-1.479-.645-.69-.37-.694-.411-.599-.464-.602-.51-.552-.597-.51-.6-1.244-1.247-.462-.554-.459-.6-.37-.6-.369-.922-.692-2.077-.276-.968-.14-.692-.14-.739-.136-.692-.14-1.016-.047-.692-.048-.784v-.784l.048-.785.047-.83.093-.785.136-.784.187-.784.23-.784.233-.692.276-.74.322-1.061.323-.737.183-.415.368-.692.65-1.016.46-.645.232-.371.552-.553.786-.646.598-.461.6-.416 1.384-.923.603-.37.645-.367.646-.324.968-.415.645-.23.692-.231.692-.185 1.753-.323.694-.139 2.304-.276 1.478-.093 1.384.093 1.108.046.787.092.784.138.781.184.786.14.74.184.69.184.694.232.968.368.645.278 1.524.876.599.414.598.463.786.739.51.46.506.508.414.553.646.877.37.6.322.6.37.6.51.923.37.6.322.692.23.645.227 1.062.28 1.385.091.783.139.785zM1557.365 153.09l-.047.739v6.828l.134 2.677v.737l.095 6.092v.784l-.047.368-.048.786-.134 2.214.047 2.679-.047.647-.188.552-.368.508-.459.322-.416.135-.647.047-2.35.094-.74.047-1.155.047h-.739l-.598-.14-.556-.23-.552-.417-.416-.598-.692-1.336-.418-.604-1.796-2.26-.461-.554-1.801-2.216-.416-.598-1.614-2.4-.416-.554-1.8-2.214-.458-.554-1.707-2.261-.417-.368-.322.137-.141.555-.093 2.307v.738l.047 2.307v.737l.047 2.584v.739l-.14 2.585.047.738.28 1.849.043.733-.135.603-.322.323-.324.093-.556.088-.37.048-.781.047-2.123-.047h-.738l-1.894.093h-.74l-.692-.047-.504-.094-.37-.228-.186-.324-.09-.46-.048-.324v-.692l.093-1.524.044-.736-.137-2.447v-.739l.093-5.629.044-.737.139-2.447.047-.739v-3.182l-.186-2.447v-.737l.186-2.446-.047-.74-.183-2.49-.047-.738v-1.061l.047-.692.091-.693.092-.507.14-.324.277-.139.504-.09 1.386-.094 1.384.094h3.46l.556.045.229.184.276.416 1.94 2.077.459.552 1.712 2.216.458.552 1.707 2.262.463.554 1.66 2.307.417.553 1.752 2.216.464.554 1.66 2.306.37.323.367.047.324-.231v-.508l-.324-1.937-.047-.738.138-1.985v-.739l-.183-2.814v-.738l.183-2.816-.043-.737-.14-1.707v-1.154l.14-.599.181-.37.324-.185.556-.092h.412l.785-.045 2.078.137h.737l1.567-.092.693.047 1.061.045.508.094.324.137.276.324.093.645.047.415.047.784-.093 1.43-.093.74zM1591.056 149.491l-.047.692.047 1.385-.047.738-.045.37-.09.552-.14.323-.276.23-.552.094h-.74l-1.384-.139-.738-.046-2.124.138h-.738l-1.154-.092h-.694l-.32.046-.46.138-.188.276-.047.602-.181 2.721v.739l.181 2.769-.047.737-.182 2.768-.047.739.095 2.723v4.245l-.095 2.721.047.692.23 2.076.046.74-.135.555-.234.23-.599.093-.879-.047-1.15-.141-.786-.042-2.076.136h-.74l-2.074-.136-.554-.046-.278-.14-.091-.506v-.784l.136-1.942.047-.738v-3.46l.047-2.768v-.738l.047-2.723v-.739l-.186-2.768-.044-.737v-3.508l-.093-2.721v-.647l-.14-.37-.458-.091h-.692l-1.478.092h-.832l-1.244-.092-.786-.046-.786.046-1.06.046h-.693l-.368-.046-.507-.092-.274-.186-.188-.276-.093-.461v-.323l-.041-.738.088-1.384v-.694l-.136-1.753.048-.737.134-.6.188-.324.275-.138.463-.092h1.061l1.708.138h.733l2.68-.184h.74l2.722.23h.739l3.413-.23 2.675.046h.738l3.46-.046h3.415l1.524-.092.785.045.37.047.553.092.321.184.23.324.093.553v.324l.047.692zM1620.736 162.918v-.784l-.047-.785-.045-.737-.276-1.386-.188-.645-.506-1.015-.369-.6-.645-.83-.463-.508-.692-.74-.51-.414-1.197-.692-.645-.277-.739-.23-.74-.138-1.476-.092-.693.045-1.015.047-.692.137-1.2.323-.736.277-1.06.555-.648.415-.737.646-.51.554-.506.692-.368.6-.141.276-.415.969-.23.692-.14.323-.135.646-.095.646-.047.646-.047.692v.692l.047.739.141.737.045.416.184.692.092.324.23.646.186.369.365.645.235.37.505.645.28.324.552.553.922.786.644.414.74.37.692.276.972.324.692.137 1.15.139.786.046 1.154-.092.74-.093 1.015-.23.645-.277 1.015-.646.552-.416.737-.738.464-.508.6-.737.415-.647.463-1.014.276-.692.23-1.062.094-.692zm9.69-.784-.047.739-.093 1.06-.094.692-.276 1.384-.093 1.063-.089.692-.138.737-.184.693-.463.97-.323.644-1.249 2.077-.41.6-.463.6-.463.51-.739.782-.505.461-.599.464-.556.41-.828.558-.604.37-.692.368-.644.276-.922.369-.692.183-1.478.464-.786.229-.738.187-.78.182-.786.14-.787.047h-2.492l-1.567-.093-1.525-.183-.644-.14-.692-.188-2.493-.828-.738-.23-.78-.325-1.48-.645-.692-.37-.692-.411-.598-.464-.603-.51-.552-.597-.51-.6-1.245-1.247-.46-.554-.46-.6-.369-.6-.37-.922-.691-2.077-.276-.968-.142-.692-.14-.739-.136-.692-.14-1.016-.047-.692-.047-.784v-.784l.047-.785.047-.83.093-.785.136-.784.187-.784.23-.784.233-.692.276-.74.322-1.061.323-.737.183-.415.37-.692.65-1.016.457-.645.233-.371.552-.553.787-.646.597-.461.6-.416 1.384-.923.603-.37.645-.367.647-.324.967-.415.646-.23.691-.231.693-.185 1.754-.323.692-.139 2.305-.276 1.479-.093 1.384.093 1.108.046.785.092.784.138.781.184.787.14.739.184.692.184.692.232.97.368.643.278 1.524.876.6.414.599.463.785.739.51.46.505.508.416.553.644.877.37.6.323.6.37.6.509.923.37.6.322.692.23.645.228 1.062.28 1.385.09.783.14.785zM1660.797 176.994l-.047.735v.416l-.14.555-.276.322-.323.136-.464.094h-.368l-.645.048-5.121-.278h-3.46l-4.154.278-2.674-.183h-3.418l-2.118.135h-.698l-.645-.047-.505-.088-.322-.188-.234-.276-.088-.555v-.734l.228-1.755.048-.692-.188-2.448v-.737l.093-2.446v-.738l.095-5.63v-.738l-.188-5.63v-.737l-.041-2.447v-3.921l-.095-1.385v-.692l.048-.415.134-.599.188-.277.322-.139.505-.092h.37l.693-.046 2.262.138h.739l3.273-.046h.463l.324.185.23.323v4.013l.091 2.677v.738l-.14 2.677v.737l.095 2.678v.737l.139 2.676v.739l-.276 6.09.043.462.048.232.092.229.23.185.557.092 1.566.092 1.384-.092h.738l6.646-.092.738-.047 1.566-.185.74-.045h.69l.558.139.323.277.136.323.047.508.047 2.585.047.737zM1687.61 135.002l-.275.462-1.802 2.4-.457.553-1.893 2.308-.418.46-.458.232-.556.09-.37.047-2.258-.137h-3.415l-.415-.047-.14-.045-.048-.14v-.137l1.384-2.768.37-.647 1.109-2.447.276-.46.233-.14h.552l.37-.045h.74l1.06.045h.691l2.167-.045h.692l1.019-.092 1.29.092.463.139zm1.297 27.916v-.784l-.047-.785-.048-.737-.276-1.386-.187-.645-.505-1.015-.37-.6-.645-.83-.464-.508-.69-.74-.51-.414-1.197-.692-.647-.277-.739-.23-.737-.138-1.479-.092-.692.045-1.014.047-.692.137-1.203.323-.735.277-1.06.555-.646.415-.739.646-.508.554-.505.692-.371.6-.14.276-.416.969-.23.692-.14.323-.135.646-.093.646-.047.646-.047.692v.692l.047.739.14.737.048.416.181.692.095.324.23.646.185.369.366.645.232.37.506.646.28.323.552.553.922.786.644.414.74.37.691.276.973.324.692.137 1.151.139.787.046 1.154-.092.738-.093 1.014-.23.647-.277 1.013-.646.552-.416.74-.738.463-.508.599-.737.414-.647.464-1.014.276-.692.23-1.062.093-.692zm9.688-.784-.047.739-.093 1.06-.093.692-.276 1.384-.093 1.063-.09.692-.14.738-.18.692-.465.97-.322.644-1.248 2.077-.412.6-.463.6-.464.51-.737.782-.506.461-.6.464-.556.41-.828.558-.602.37-.69.368-.648.276-.92.369-.693.183-1.477.464-.786.229-.74.187-.78.182-.785.14-.785.048h-2.494l-1.566-.095-1.526-.182-.644-.14-.693-.188-2.492-.828-.739-.23-.78-.325-1.478-.645-.692-.37-.692-.412-.599-.464-.603-.509-.552-.597-.509-.6-1.245-1.247-.463-.555-.457-.598-.37-.6-.37-.923-.692-2.076-.276-.97-.14-.691-.14-.739-.136-.692-.14-1.016-.047-.692-.047-.784v-.784l.047-.785.047-.83.093-.785.136-.784.186-.784.23-.784.234-.692.276-.74.322-1.061.322-.738.184-.414.368-.692.65-1.016.458-.646.235-.37.552-.554.785-.645.599-.461.597-.416 1.386-.923.604-.37.644-.367.645-.324.968-.415.645-.23.694-.231.69-.186 1.755-.322.69-.139 2.307-.276 1.478-.093 1.384.093 1.108.045.785.092.787.14.781.183.785.14.739.184.692.184.692.232.968.368.647.277 1.522.876.599.415.6.463.784.738.51.46.505.508.417.554.645.877.368.6.324.6.37.6.509.923.37.6.322.692.23.645.229 1.061.28 1.386.089.782.14.786zM1734.64 160.242l.046.784-.182 2.999v4.337l-.093 1.939v2.723l-.047.508-.276.461-.37.601-.416.599-.786.787-.551.504-.276.276-.599.417-.322.187-.603.365-.923.463-.69.276-.647.232-1.061.322-.692.183-.739.141-.692.135-1.061.141-.646.094-.692.136-1.848.233-.692.047-1.43-.094-1.062-.093-.738-.093-.735-.136-.692-.188-1.619-.458-.69-.188-.694-.229-.92-.323-.598-.322-.927-.508-.552-.418-.599-.41-.556-.464-.552-.416-.509-.463-.74-.735-.457-.554-.51-.694-.417-.646-1.15-2.076-.322-.738-.327-.692-.229-.738-.23-.786-.14-.737-.135-.784-.093-.74-.188-1.015-.088-.737-.048-.693v-.692l.136-2.076.093-.37.141-.784.183-.784.232-.738.229-.784.23-.739.234-.692.323-.739.322-.784.322-.646.6-.83.416-.554.505-.6.51-.554.551-.506 1.202-1.016.6-.462.556-.416.552-.368 1.522-.877.694-.415.781-.324.785-.23.739-.184 1.708-.278 1.336-.185.692-.137.693-.092 1.06-.092.739-.047 1.016.092.69.047 1.062.137.647.139 1.014.185.692.185 1.015.322.692.23 1.664.832.693.415.599.415.23.138.509.324.505.368.232.231.505.37.276.23.282.323v.324l-.14.322-.276.415-.418.6-.461.508-1.29 1.29-.833.74-.552.462-.51.368-.368.277-.276.184-.371.048-.505-.324-.599-.416-.603-.369-.645-.368-.739-.324-.738-.277-.782-.183-.786-.139-2.17-.138h-.322l-.738.045-1.198.093-.739.184-1.384.647-.603.415-.598.462-.506.507-.464.6-.414.6-.371.645-.276.692-.228.739-.187.692-.276 1.384-.141.739-.043.784v.784l.091 1.108.139.738.23 1.062.234.738.457 1.107.324.645.556.832.457.552.832.786.6.461.926.507.693.277 1.384.324.781.092.784.047h.739l.74-.094.69-.138 2.494-.599.739-.277.692-.324.458-.322.14-.277v-.508l.047-.415v-.692l-.093-1.384v-.785l-.182-.276-.51-.093h-1.108l-.738.046-1.062.14-.738.044h-1.058l-.74-.045-1.569-.277-.277-.092-.182-.23-.095-.556-.047-.369-.047-.737.047-1.155-.093-1.384-.093-.692v-.97l.14-.506.23-.23.556-.093 1.15-.138.786-.045h2.124l2.997-.14 3.693.232h.74l1.89-.232.738-.046.37.046.692.14.322.184.093.276.136.646zM1749.738 171.916v.738l-.182 2.494v.738l-.047 2.538v.505l-.14.276-.371.095-.644.046-2.353-.046h-2.862l-2.305-.183-.276-.093-.14-.142v-.458l-.095-1.154v-.74l-.045-.692v-.69l-.136-2.494.047-.738.135-2.492.048-.738-.136-2.537v-.739l-.047-2.492v-3.968l-.047-2.537v-.74l.047-2.49v-3.969l-.093-2.538.14-.507.276-.185.458-.046h.37l.692-.046 1.108.046h.738l2.123-.092h2.863l.505.092.093.276.047.507.092 1.201.044.739v4.521l.047 2.491v.74l-.047 2.537v.739l.047 2.49v.74l-.091 2.491v4.014zM1785.965 174.96l-.37.37-.832.738-.552.416-.88.645-.552.37-.92.509-.602.322-1.062.506-.693.234-.781.228-.784.142-1.156.23-1.614.18-.833.048-1.15.094h-2.403l-.782-.047-.785-.095-.785-.134-.786-.188-.692-.23-2.076-.552-1.014-.369-.599-.279-.876-.505-.556-.416-.599-.417-.645-.416-1.201-1.015-.552-.552-.51-.6-.505-.692-.416-.647-.37-.645-.322-.647-.463-.968-.693-1.938-.323-.923-.458-1.384-.092-.692-.047-1.061.047-.692.045-.739v-.785l.09-1.57.048-.737.139-.692.184-1.015.186-.692.23-.692.228-.646.328-.923.322-.647.323-.692.37-.692.411-.692.416-.646.463-.599.505-.645.556-.602.552-.508.603-.506.552-.46 1.479-1.018.598-.368.644-.369 1.386-.647.785-.277.739-.23 1.566-.369.786-.138.785-.092 1.432-.092 1.013-.092.694.045 1.014.047 1.707.229.645.14 1.062.184 1.613.461.647.278 1.013.598.65.37 1.198.83 1.43 1.016.51.37.276.23.323.323.093.37-.047.369-.276.368-.416.508-.51.508-.505.46-.51.416-.506.508-.784.922-.51.555-.229.23-.417.369-.323.138-.322.047-.322-.092-.51-.277-.875-.647-.599-.323-1.014-.462-.651-.23-1.013-.277-.692-.137-1.151-.094h-.74l-1.015.094-.737.184-1.016.322-.692.278-.603.23-.921.462-.645.461-.323.276-.552.6-.416.647-.323.6-.324.646-.28.692-.228.738-.14.784-.089.692-.095 1.385v.739l.048 1.153.047.692.23 1.06.227.692.325.785.369.692.692 1.016.51.554.874.738.603.415.92.461.694.278 1.013.276.74.138 1.107.047h1.063l.644-.139.37-.092.693-.23 1.156-.416.733-.323.692-.323.603-.324.874-.553.6-.461.461-.323.276-.092.418.092.51.323.503.461.188.277.459.508.738.922.463.554 1.244 1.431.416.555.23.23.233.414zM1811.258 164.81l-.187-.6-1.013-3.137-.23-.692-.922-2.723-.232-.6-.46-.323-.603-.138-.505.138-.463.462-1.245 3.138-.276.692-1.2 3.091-.14.692.14.555.51.229.645.092h2.904l2.169.14.599-.185.37-.37zm15.415 13.012.134.647-.322.508-.506.228-.602.094h-.647l-1.06-.094-.692-.047h-2.077l-2.862.188-.598-.23-.276-.327-.23-.506-1.43-3.874-.323-.463-.416-.092-.556-.045-2.768-.186h-.735l-3.465-.092-2.768-.046h-.692l-.693.046h-2.12l-.602.092-.37.231-.275.555-1.061 3.137-.276.737-.51.599-.693.235h-.733l-2.68-.14h-.74l-2.855.181-.604.047-.552-.276-.37-.506.048-.6.093-.37.276-.74.645-1.427.276-.692 1.155-2.587.276-.645 1.202-2.583.276-.693 1.06-2.492.276-.692 1.246-2.584.28-.647 1.66-3.782 1.29-2.768.323-.739 1.015-2.076.322-.739.879-2.122.276-.692.832-1.892.23-.507.463-.277.69-.139 2.12-.092h3.6l2.124.047.786.137.506.37.233.6.645 1.8.276.691 1.155 2.168.276.647 1.015 2.26.276.647.832 2.353.276.645 1.014 2.215.276.647 1.016 2.261.276.645.926 2.307.274.647 1.43 2.861 1.11 2.168.323.645 1.244 2.908zM1857.272 168.824l-.047.784-.092.786-.137.737-.23 1.016-.233.645-.416.923-.322.6-.552.832-.463.55-.552.558-.556.505-.923.604-.598.411-.691.37-.647.323-1.061.367-1.384.464-.737.14-1.156.183-.692.093-1.015.095-.645.041-1.062.047-2.216.141h-1.016l-.644-.048-1.062-.093-.692-.088-.786-.142-.692-.229-1.014-.323-.646-.328-.692-.32-.645-.322-.6-.37-1.477-1.016-.552-.458-.832-.65-.552-.46-.51-.508-.37-.416-.046-.322.233-.415.183-.232.463-.507 1.292-1.2.414-.506.787-1.2.41-.507.463-.51.51-.275.506.092.51.37 1.472 1.015.693.368.65.324 1.06.507.693.23.734.232.739.138 1.061.045.74.048 2.908-.185.739-.092.37-.094.691-.276.599-.369.464-.461.23-.323.275-.692-.048-.785-.093-.368-.364-.647-.234-.277-.599-.46-.37-.14-.691-.276-.786-.186-.785-.138-4.383-.415-1.384-.277-.738-.184-1.015-.37-.692-.23-.693-.323-1.566-.785-.604-.415-.69-.415-.599-.416-.785-.645-.414-.6-.414-.692-.276-.692-.327-.97-.137-.691-.14-1.016-.09-1.478.044-.737.093-1.107.14-.692.182-.6.235-.692.457-1.016.324-.645.368-.555.464-.506.738-.692.6-.462.598-.416.644-.322.88-.508 1.384-.554.692-.23 1.062-.184.74-.14 1.384-.184 1.013-.184.74-.092.692-.047h.737l1.386.139.692.09.322.094.74.092 1.567.277.784.185.739.23.781.232.74.276.69.324.694.277.879.507.644.322.6.415.416.416v.461l-.276.507-.51.924-.369.553-1.753 2.308-.506.646-.556.461-.37.137-.323-.045-.459-.23-.69-.417-.694-.276-.322-.138-.69-.23-.372-.093-.785-.185-1.063-.23-.737-.046-1.199-.092h-1.2l-.786.046-.782.138-.738.23-.28.14-.552.415-.228.276-.324.647-.093.737.14.6.365.6.51.461.551.278.323.137.696.14 1.152.137 1.57.094.78.137 1.573.37 1.478.462 1.06.23.692.185 1.292.461.92.415.647.322.65.371.598.368 1.337 1.108.506.552.462.555.558.832.364.598.326.692.183.692.184 1.016.092.692zM1189.46 232.502v1.03l-.256 3.47v1.028l-.065 3.538v.708l-.192.317-.515.196-.9.065-3.28-.065h-3.985l-3.214-.259-.386-.126-.194-.191v-.645l-.128-1.604v-1.035l-.064-.963v-.964l-.193-3.47.065-1.03.192-3.47.064-1.03-.193-3.533v-1.032l-.063-3.468v-5.53l-.065-3.535v-1.03l.065-3.473v-5.527l-.13-3.538.193-.703.386-.261.643-.063h.515l.964-.064 1.542.064h1.03l2.956-.127h3.985l.71.127.127.386.064.706.128 1.672.065 1.028v6.3l.064 3.473v1.03l-.064 3.535v1.027l.064 3.473v1.03l-.13 3.468v5.596zM1241.915 206.4l-.064 1.029v9.516l.192 3.726v1.035l.13 8.481v1.096l-.065.514-.065 1.09-.192 3.09.064 3.726-.064.9-.257.774-.514.704-.644.45-.578.195-.9.063-3.279.128-1.03.065-1.606.061h-1.028l-.836-.19-.772-.322-.77-.578-.58-.836-.963-1.864-.579-.836-2.508-3.152-.643-.768-2.506-3.086-.58-.836-2.25-3.344-.577-.77-2.508-3.088-.642-.77-2.38-3.15-.578-.514-.45.194-.192.77-.13 3.216v1.027l.065 3.213v1.028l.064 3.602v1.026l-.193 3.602.064 1.032.386 2.566.064 1.03-.192.836-.45.45-.45.127-.772.13-.514.066-1.094.063-2.957-.063h-1.028l-2.636.128h-1.028l-.964-.065-.708-.128-.515-.32-.256-.451-.128-.641-.065-.45v-.964l.128-2.125.065-1.025-.193-3.41v-1.03l.128-7.842.065-1.026.192-3.41.064-1.028v-4.437l-.256-3.404v-1.033l.256-3.404-.064-1.028-.257-3.475-.063-1.025v-1.478l.063-.965.13-.967.127-.705.193-.45.386-.191.708-.132 1.928-.128 1.928.128h4.822l.771.064.321.258.387.578 2.699 2.896.644.768 2.378 3.086.643.774 2.379 3.15.642.768 2.315 3.214.579.774 2.441 3.086.644.768 2.315 3.216.514.45.514.068.45-.322v-.711l-.45-2.701-.064-1.026.192-2.766v-1.026l-.256-3.924v-1.026l.256-3.924-.064-1.027-.192-2.377v-1.61l.192-.833.257-.513.45-.26.773-.128h.577l1.093-.063 2.894.19h1.028l2.186-.127.963.065 1.479.063.708.128.45.194.386.45.128.902.064.575.064 1.092-.128 1.997-.128 1.026zM1288.84 201.387l-.063.964.064 1.932-.064 1.026-.064.516-.128.77-.194.451-.385.32-.772.13h-1.03l-1.927-.194-1.03-.063-2.957.19h-1.028l-1.608-.127h-.964l-.45.064-.642.196-.257.385-.064.831-.258 3.797v1.028l.258 3.855-.064 1.03-.26 3.858-.062 1.025.128 3.798v5.913l-.128 3.792.063.964.323 2.893.064 1.031-.194.768-.321.324-.836.127-1.221-.065-1.607-.19-1.093-.068-2.894.196h-1.028l-2.893-.196-.772-.065-.385-.19-.128-.709v-1.09l.192-2.7.065-1.03v-4.822l.063-3.855v-1.028l.065-3.797v-1.026l-.258-3.857-.064-1.03v-4.883l-.129-3.798v-.898l-.192-.514-.643-.126h-.965l-2.057.126h-1.156l-1.736-.126-1.094-.066-1.092.066-1.478.062h-.964l-.515-.062-.707-.128-.385-.26-.259-.386-.128-.641v-.45l-.064-1.029.128-1.932v-.964l-.193-2.44.065-1.03.192-.835.259-.45.385-.19.641-.133h1.479l2.379.196h1.029l3.73-.26h1.027l3.794.325h1.028l4.757-.324 3.728.063h1.03l4.82-.063h4.758l2.121-.127 1.094.063.514.064.772.128.448.257.323.45.128.774v.45l.064.965zM1332.68 236.68l-.064 1.03-.258 3.472-.064.643-.257.45-.321.256-8.423.258h-1.028l-3.407-.258-1.029.063-3.343.26-1.029.063h-4.435l-3.342-.259h-1.03l-5.528.324-2.185-.128-.772-.128-.45-.323-.194-.45-.128-.708-.128-1.478-.065-1.028.065-.964v-.962l.256-3.41v-1.029l.065-3.405-.065-1.032-.192-3.406-.064-1.026.128-3.474v-5.464l.257-3.406-.064-1.031-.193-3.407-.064-1.025v-1.547l.13-1.928v-.962l.191-3.342.064-.901.194-.513.322-.26.514-.063.834-.128 4.18.256 3.922-.065h1.028l3.857.26h1.03l3.857-.26h1.028l8.742.128 1.094-.063 2.185-.193h1.608l.9.193.385.323.128.45.13.836v1.732l-.13 1.61v1.09l.065 1.61.064.964-.064.962-.129.774-.256.45-.323.256-.77.13h-.515l-1.03.065-6.04-.132h-1.03l-3.279.132h-1.029l-3.341-.132-2.895-.19h-.964l-.515.062-.642.128-.322.323-.064.385-.128.71-.129 1.54v1.029l.065 1.096.064.702.128.451.257.323.707.19 2.057.128 2.058-.128h6.106l7.2-.385 1.994.133.708.124.385.323.193.384.064.708.13 1.09.063 1.097v2.12l.13 1.482-.13 1.927-.128.773-.256.451-.45.317-.645.131h-1.285l-2.892-.323-1.03-.062-5.142.317-4.115-.128h-1.028l-2.572-.19-1.092.063-.772.064-.321.191-.193.45-.064.965-.194 1.609-.063 1.028v1.415l.063.645.194.448.257.255.707.065 3.536.13h1.028l3.472-.257 4.564.258h1.029l4.564-.258h.964l.964.062 2.316.26.385.19.256.386.065.712zM1365.077 217.458l.835-.317.771-.451.643-.773.45-.964.258-1.026.064-1.034-.064-1.091-.13-1.092-.256-.965-.451-.967-.577-.768-.708-.58-.9-.384-1.414-.323-1.03-.126-3.214-.068h-1.026l-3.28.194-.772.066-.45.19-.386.388-.064.708.064 1.476.129 1.03.128 1.093.065 1.09-.13 3.54.065.703.129.388.45.196.771.127 3.343.253h1.028l4.243-.253zm18.064 25.01-.836.258h-4.5l-3.535-.068h-1.03l-2.892.13h-.835l-.579-.257-.514-.513-2.058-2.893-.578-.771-2.058-2.765-.578-.774-1.8-2.953-.58-.773-2.056-2.767-.45-.512-.385-.19-.772-.069-2.057-.126-.835.06-.516.389-.193.836-.128 3.537.064 1.028.257 3.6.065 1.028.064 1.542v1.032l-.064 1.025-.13.773-.32.319-.707.195h-1.028l-3.086-.195-2.958.195h-1.028l-2.958-.195-.772-.125-.385-.256-.128-.646-.065-.901-.064-.963.13-1.672.063-1.03.256-3.467v-1.032l-.192-3.468-.064-1.032-.064-3.405v-1.03l.192-3.47v-1.03l-.192-3.473v-1.027l.192-3.473v-1.03l.128-3.403v-1.031l-.063-3.47v-1.027l-.13-2.123.065-.964.065-.388.193-.836.384-.512.772-.193.514-.063.965-.068 2.893.13 7.65.256 4.372-.256h1.028l4.242.256h2.444l1.092.064.966.196 1.348.386.965.317.964.388 1.03.385.963.451.836.514 1.222.836.708.577.644.647.64.768.9 1.286.578.836.772 1.224.45.901.45.963.323 1.027.192 1.028.064 1.027.13 1.418v1.03l-.065 1.025-.13 1.092-.191 1.096-.259 1.025-.385.964-.45.967-.578.962-.579.836-.58.774-.577.704-1.03 1.033-.705.576-1.286.71-.771.449-.837.45-.835.192-.516.191.259.513 2.314 3.285.579.767 2.313 3.151.644.77 2.314 3.217.642.77 1.992 2.316.579.706.323.708zM1432.638 206.4l-.064 1.029v9.516l.192 3.726v1.035l.127 8.481v1.096l-.063.514-.064 1.09-.192 3.09.064 3.726-.064.9-.259.774-.513.704-.642.45-.582.195-.9.063-3.278.128-1.028.065-1.608.061h-1.029l-.836-.19-.768-.322-.775-.578-.577-.836-.963-1.864-.58-.836-2.508-3.152-.642-.768-2.508-3.086-.578-.836-2.249-3.344-.58-.77-2.507-3.088-.641-.77-2.38-3.15-.579-.514-.449.194-.193.77-.13 3.216v1.027l.065 3.213v1.028l.064 3.602v1.026l-.193 3.602.064 1.032.387 2.566.064 1.03-.194.836-.45.45-.45.127-.77.13-.515.066-1.092.063-2.957-.063h-1.03l-2.634.128h-1.03l-.965-.065-.707-.128-.513-.32-.257-.451-.128-.641-.065-.45v-.964l.128-2.125.065-1.025-.194-3.41v-1.03l.128-7.842.065-1.026.192-3.41.065-1.028v-4.437l-.257-3.404v-1.033l.257-3.404-.065-1.028-.257-3.475-.063-1.025v-1.478l.063-.965.128-.967.13-.705.193-.45.385-.191.707-.132 1.929-.128 1.928.128h4.821l.774.064.321.258.385.578 2.7 2.896.642.768 2.38 3.086.642.774 2.378 3.15.644.768 2.314 3.214.578.774 2.444 3.086.642.768 2.315 3.216.513.45.516.068.45-.322v-.711l-.45-2.701-.067-1.026.195-2.766v-1.026l-.259-3.924v-1.026l.259-3.924-.064-1.027-.195-2.377v-1.61l.195-.833.256-.513.45-.26.77-.128h.581l1.091-.063 2.892.19h1.033l2.182-.127.968.065 1.477.063.705.128.451.194.387.45.125.902.069.575.064 1.092-.133 1.997-.126 1.026zM1470.754 222.731l-.259-.836-1.414-4.37-.318-.968-1.286-3.792-.323-.836-.641-.45-.838-.19-.708.19-.641.646-1.736 4.369-.387.964-1.67 4.31-.195.963.196.774.705.317.9.133h4.05l3.025.19.832-.258.517-.516zm21.472 18.13.192.9-.45.708-.705.32-.837.128h-.9l-1.477-.128-.964-.063h-2.896l-3.983.256-.836-.324-.387-.445-.322-.711-1.991-5.401-.45-.64-.578-.131-.773-.065-3.856-.255h-1.031l-4.819-.13-3.861-.065h-.964l-.963.064h-2.956l-.836.13-.514.32-.386.772-1.477 4.376-.387 1.025-.708.839-.965.317h-1.028l-3.727-.19h-1.032l-3.982.258-.836.063-.774-.386-.514-.708.064-.833.128-.519.386-1.026.899-1.992.387-.963 1.609-3.603.383-.897 1.673-3.603.387-.962 1.477-3.475.385-.963 1.738-3.601.386-.899 2.314-5.27 1.8-3.86.45-1.026 1.414-2.893.45-1.027 1.219-2.961.387-.963 1.158-2.636.323-.705.641-.385.964-.196 2.955-.127h5.015l2.96.061 1.09.196.71.516.322.836.9 2.506.383.962 1.61 3.024.386.899 1.413 3.15.387.902 1.153 3.279.388.897 1.414 3.09.386.898 1.415 3.145.385.902 1.288 3.213.386.901 1.992 3.987 1.54 3.024.45.9 1.738 4.05zM1535.747 236.875l-.513.516-1.159 1.025-.773.579-1.219.9-.772.516-1.286.706-.838.45-1.477.709-.964.317-1.09.323-1.097.193-1.605.323-2.25.257-1.158.066-1.605.128h-3.347l-1.092-.066-1.09-.128-1.095-.194-1.092-.256-.963-.323-2.896-.77-1.415-.517-.837-.385-1.217-.705-.774-.576-.836-.583-.9-.579-1.668-1.41-.774-.774-.708-.836-.706-.966-.577-.9-.517-.9-.45-.9-.642-1.35-.963-2.696-.45-1.285-.642-1.93-.13-.966-.065-1.48.064-.963.063-1.026v-1.096l.132-2.183.064-1.03.191-.965.259-1.413.254-.967.323-.964.324-.898.45-1.286.449-.901.45-.964.514-.963.578-.964.576-.901.647-.836.704-.901.773-.836.772-.706.836-.708.77-.641 2.058-1.413.838-.514.9-.518 1.926-.895 1.092-.388 1.028-.324 2.187-.512 1.095-.196 1.09-.128 1.994-.127 1.413-.128.968.066 1.413.062 2.378.323.9.19 1.478.26 2.251.64.9.389 1.413.836.9.513 1.674 1.153 1.99 1.415.711.515.381.324.451.448.13.514-.063.514-.387.518-.58.706-.707.708-.708.64-.704.578-.709.71-1.092 1.285-.71.77-.317.322-.582.513-.451.195-.45.065-.449-.133-.705-.38-1.223-.901-.837-.451-1.413-.645-.9-.318-1.415-.385-.963-.196-1.605-.127h-1.032l-1.413.127-1.028.259-1.414.45-.964.386-.837.32-1.287.642-.9.644-.449.386-.773.836-.578.9-.449.836-.45.9-.387.965-.319 1.025-.196 1.092-.125.968-.128 1.928v1.028l.064 1.604.064.97.321 1.476.319.966.45 1.09.519.965.963 1.416.705.768 1.223 1.03.836.58 1.281.643.97.386 1.413.385 1.028.193 1.541.062h1.483l.898-.19.515-.128.964-.322 1.605-.58 1.031-.448.964-.448.832-.451 1.223-.773.837-.642.64-.45.387-.132.578.132.708.45.71.642.254.385.646.705 1.028 1.287.641.773 1.736 1.99.579.773.322.323.322.578zM1554.706 232.632v1.028l-.257 3.47v1.03l-.065 3.535v.708l-.192.385-.514.128-.899.066-3.283-.066h-3.982l-3.215-.257-.387-.128-.194-.19v-.646l-.128-1.604v-1.03l-.063-.962v-.97l-.19-3.469.063-1.028.19-3.472.064-1.028-.191-3.536v-1.029l-.063-3.47v-5.53l-.064-3.536v-1.03l.064-3.473V201l-.132-3.53.194-.709.386-.256.642-.066h.514l.964-.066 1.545.066h1.028l2.955-.128h3.986l.71.128.128.385.064.708.126 1.67.063 1.03v6.297l.07 3.474v1.029l-.07 3.536v1.027l.07 3.473v1.03l-.133 3.47v5.593zM1599.706 220.096v-1.09l-.064-1.098-.068-1.028-.383-1.927-.259-.901-.708-1.412-.514-.839-.9-1.158-.642-.703-.964-1.03-.708-.58-1.669-.963-.9-.388-1.032-.318-1.028-.196-2.055-.126-.964.062-1.417.064-.965.196-1.668.45-1.032.386-1.478.768-.9.583-1.028.896-.708.77-.705.965-.513.838-.196.386-.578 1.349-.322.965-.19.448-.192.902-.132.9-.064.9-.064.965v.964l.064 1.027.196 1.03.063.579.255.963.132.45.319.902.258.513.515.9.321.513.706.902.385.448.773.773 1.287 1.09.896.58 1.033.518.963.383 1.35.448.965.194 1.605.194 1.095.062 1.605-.128 1.03-.128 1.415-.32.9-.388 1.414-.898.77-.579 1.031-1.028.64-.708.836-1.03.579-.898.645-1.413.381-.964.324-1.479.127-.964zm13.497-1.09-.064 1.025-.127 1.48-.126.962-.387 1.932-.132 1.478-.128.962-.19 1.03-.26.964-.64 1.348-.451.9-1.736 2.897-.578.83-.645.84-.641.707-1.028 1.092-.71.646-.836.64-.768.578-1.16.774-.836.513-.964.513-.898.386-1.288.514-.964.259-2.055.64-1.095.323-1.028.256-1.092.26-1.094.19-1.092.063h-3.472l-2.184-.125-2.123-.256-.9-.195-.964-.255-3.473-1.16-1.027-.322-1.09-.451-2.06-.9-.965-.513-.964-.58-.837-.64-.836-.708-.772-.835-.705-.839-1.738-1.732-.64-.773-.646-.836-.512-.836-.515-1.287-.964-2.89-.387-1.352-.189-.963-.196-1.03-.19-.962-.196-1.415-.064-.964-.064-1.093v-1.09l.063-1.098.065-1.156.132-1.093.19-1.091.26-1.092.317-1.096.323-.964.387-1.028.45-1.477.45-1.031.255-.579.518-.962.9-1.415.64-.901.323-.512.77-.775 1.095-.897.836-.644.832-.575 1.932-1.287.832-.516.9-.518.902-.448 1.349-.578.9-.317.964-.324.968-.26 2.441-.45.964-.19 3.215-.385 2.059-.128 1.929.128 1.54.06 1.096.129 1.09.196 1.093.255 1.094.194 1.028.256.963.258.965.322 1.35.514.9.388 2.122 1.218.838.582.832.64 1.094 1.029.706.645.709.703.579.775.898 1.224.514.83.45.836.515.838.708 1.286.515.836.45.964.322.902.318 1.476.387 1.926.132 1.098.19 1.09zM1663.281 206.4l-.068 1.029v9.516l.196 3.726v1.035l.126 8.481v1.096l-.063.514-.063 1.09-.196 3.09.068 3.726-.068.9-.255.774-.515.704-.644.45-.578.195-.9.063-3.28.128-1.026.065-1.61.061h-1.027l-.836-.19-.773-.322-.768-.578-.582-.836-.964-1.864-.577-.836-2.505-3.152-.646-.768-2.505-3.086-.581-.836-2.251-3.344-.577-.77-2.504-3.088-.647-.77-2.377-3.15-.58-.514-.448.194-.195.77-.128 3.216v1.027l.064 3.213v1.028l.064 3.602v1.026l-.192 3.602.064 1.032.387 2.566.064 1.03-.191.836-.45.45-.45.127-.773.13-.515.066-1.09.063-2.96-.063h-1.029l-2.636.128h-1.028l-.962-.065-.711-.128-.512-.32-.26-.451-.127-.641-.064-.45v-.964l.127-2.125.064-1.025-.19-3.41v-1.03l.126-7.842.064-1.026.196-3.41.064-1.028v-4.437l-.26-3.404v-1.033l.26-3.404-.064-1.028-.26-3.475-.063-1.025v-1.478l.063-.965.132-.967.128-.705.19-.45.386-.191.71-.132 1.927-.128 1.928.128h4.823l.77.064.322.258.387.578 2.7 2.896.64.768 2.38 3.086.644.774 2.377 3.15.643.768 2.313 3.214.583.774 2.44 3.086.645.768 2.316 3.216.512.45.515.068.449-.322v-.711l-.45-2.701-.063-1.026.192-2.766v-1.026l-.256-3.924v-1.026l.256-3.924-.064-1.027-.192-2.377v-1.61l.192-.833.258-.513.45-.26.768-.128h.578l1.095-.063 2.892.19h1.028l2.185-.127.966.065 1.48.063.706.128.45.194.386.45.127.902.064.575.064 1.092-.128 1.997-.127 1.026zM1701.397 222.731l-.259-.836-1.414-4.37-.317-.968-1.287-3.792-.323-.836-.643-.45-.835-.19-.71.19-.64.646-1.737 4.369-.385.964-1.67 4.31-.196.963.196.774.704.317.901.133h4.051l3.023.19.833-.258.516-.516zm21.472 18.13.19.9-.448.708-.706.32-.836.128h-.9l-1.477-.128-.964-.063h-2.896l-3.983.256-.836-.324-.387-.445-.322-.711-1.99-5.401-.452-.64-.578-.131-.772-.065-3.856-.255h-1.03l-4.82-.13-3.86-.065h-.965l-.962.064h-2.956l-.836.13-.515.32-.387.772-1.476 4.376-.386 1.025-.71.839-.964.317h-1.028l-3.726-.19h-1.032l-3.983.258-.837.063-.772-.386-.515-.708.064-.833.128-.519.387-1.026.898-1.992.387-.963 1.61-3.603.382-.897 1.673-3.603.387-.962 1.477-3.475.386-.963 1.737-3.601.387-.899 2.313-5.27 1.801-3.86.45-1.026 1.413-2.893.45-1.027 1.22-2.961.385-.963 1.16-2.636.322-.705.642-.385.964-.196 2.954-.127h5.015l2.96.061 1.09.196.709.516.324.836.9 2.506.382.962 1.61 3.024.386.899 1.414 3.15.385.902 1.155 3.279.388.897 1.413 3.09.387.898 1.414 3.145.386.902 1.286 3.213.387.901 1.99 3.987 1.542 3.024.45.9 1.738 4.05zM1765.741 239.703l-.064 1.028v.581l-.19.768-.386.45-.45.197-.642.126h-.515l-.898.063-7.139-.385h-4.823l-5.782.385-3.73-.257h-4.758l-2.956.194h-.964l-.899-.065-.71-.13-.45-.255-.323-.386-.126-.773v-1.028l.322-2.44.064-.964-.26-3.41v-1.027l.132-3.407v-1.03l.128-7.842v-1.03l-.26-7.84v-1.034l-.064-3.404v-5.465l-.126-1.927v-.964l.064-.581.194-.834.255-.385.45-.195.71-.128h.512l.965-.065 3.15.193h1.028l4.565-.065h.64l.45.26.323.45v5.593l.127 3.725v1.03l-.19 3.731v1.028l.127 3.727v1.03l.195 3.726v1.033l-.387 8.482.064.646.064.318.127.322.323.26.773.128 2.187.128 1.928-.128h1.028l9.256-.128 1.03-.066 2.183-.256 1.033-.066h.963l.768.194.45.385.197.45.064.709.063 3.596.063 1.032zM1809.967 236.68l-.064 1.03-.258 3.472-.064.643-.257.45-.32.256-8.424.258h-1.028l-3.404-.258-1.034.063-3.341.26-1.027.063h-4.437l-3.341-.259h-1.029l-5.532.324-2.182-.128-.773-.128-.45-.323-.19-.45-.133-.708-.128-1.478-.063-1.028.063-.964v-.962l.26-3.41v-1.029l.064-3.405-.064-1.032-.196-3.406-.064-1.026.128-3.474v-5.464l.26-3.406-.064-1.031-.196-3.407-.064-1.025v-1.547l.128-1.928v-.962l.196-3.342.063-.901.191-.513.323-.26.514-.063.836-.128 4.18.256 3.922-.065h1.028l3.854.26h1.032l3.855-.26h1.028l8.747.128 1.092-.063 2.185-.193h1.605l.9.193.387.323.128.45.13.836v1.732l-.13 1.61v1.09l.064 1.61.067.964-.067.962-.128.774-.254.45-.324.256-.772.13h-.514l-1.028.065-6.041-.132h-1.032l-3.279.132h-1.027l-3.34-.132-2.897-.19h-.964l-.513.062-.643.128-.321.323-.064.385-.127.71-.132 1.54v1.029l.064 1.096.068.702.127.451.255.323.709.19 2.055.128 2.06-.128h6.105l7.201-.385 1.99.133.711.124.386.323.19.384.064.708.132 1.09.065 1.097v2.12l.126 1.482-.126 1.927-.128.773-.26.451-.448.317-.643.131h-1.287l-2.894-.323-1.028-.062-5.142.317-4.115-.128h-1.028l-2.573-.19-1.09.063-.774.064-.323.191-.19.45-.064.965-.195 1.609-.064 1.028v1.415l.064.645.195.448.254.255.71.065 3.536.13h1.03l3.467-.257 4.564.258h1.033l4.564-.258h.963l.965.062 2.314.26.387.19.254.386.064.712zM1855.672 228.322l-.064 1.096-.128 1.092-.195 1.028-.322 1.415-.32.897-.58 1.287-.451.839-.768 1.153-.645.775-.77.773-.772.703-1.286.836-.838.578-.962.518-.9.45-1.478.514-1.93.64-1.026.193-1.61.257-.963.128-1.413.134-.9.061-1.48.065-3.086.191h-1.413l-.9-.063-1.479-.128-.966-.126-1.092-.196-.963-.323-1.415-.45-.901-.446-.963-.45-.9-.451-.837-.518-2.055-1.414-.772-.642-1.16-.9-.77-.641-.707-.708-.515-.579-.063-.449.323-.581.255-.318.64-.712 1.8-1.666.582-.711 1.092-1.672.578-.705.645-.708.704-.386.71.13.704.513 2.06 1.415.964.514.9.448 1.478.712.963.318 1.032.322 1.027.191 1.478.067 1.027.065 4.05-.26 1.03-.128.517-.125.964-.388.832-.512.645-.647.323-.45.382-.963-.063-1.092-.129-.512-.513-.902-.323-.385-.837-.647-.512-.189-.965-.388-1.09-.256-1.097-.195-6.105-.576-1.928-.388-1.03-.257-1.416-.513-.964-.32-.962-.451-2.188-1.093-.832-.579-.967-.577-.833-.582-1.096-.901-.576-.83-.579-.963-.387-.97-.449-1.352-.195-.962-.192-1.415-.128-2.055.064-1.025.128-1.548.195-.963.256-.836.321-.964.642-1.413.45-.901.514-.774.645-.704 1.028-.962.836-.647.837-.577.9-.451 1.22-.708 1.93-.77.965-.322 1.477-.255 1.028-.196 1.927-.254 1.413-.258 1.032-.128.964-.065h1.028l1.927.193.965.127.45.13 1.032.129 2.182.385 1.095.255 1.028.322 1.09.323 1.034.384.963.45.964.386 1.223.708.9.45.833.578.581.579v.642l-.386.707-.71 1.285-.513.775-2.441 3.213-.71.9-.768.642-.518.194-.451-.06-.64-.325-.964-.577-.966-.386-.449-.196-.963-.32-.514-.13-1.095-.255-1.479-.323-1.026-.065-1.673-.125h-1.674l-1.09.063-1.092.19-1.031.323-.383.192-.772.581-.322.383-.451.899-.128 1.033.19.83.515.837.708.646.775.388.448.19.964.19 1.605.195 2.187.128 1.092.195 2.187.516 2.06.64 1.476.324.964.254 1.8.644 1.286.578.902.45.9.514.836.513 1.864 1.547.705.768.645.773.768 1.153.515.839.45.964.258.965.259 1.415.128.964zM1189.975 281.203l.274-.582.232-.661.156-.583.156-.857.039-.544.039-.89v-1.245l-.04-.625-.117-.896-.154-.581-.08-.234-.31-.581-.583-.815-.194-.196-.388-.429-.428-.43-.467-.346-.855-.505-.545-.235-.544-.115-.623-.12-.97-.036-.662-.038h-.972l-.854-.04-.584.04-.856.114-.427.12-.195.19-.117.466-.04.354-.038.581.077 1.17.04.62.077.855.079.62.039.626v.62l-.04.856v1.865l-.04.661-.038.62-.077.859v.541l-.04.896.04.584.116.932.156.424.232.196.468.039 3.615-.235.894-.036.622-.114.66-.195.624-.235.582-.27.506-.355.7-.62.389-.465zm8.864-3.342-.039.659-.037.935-.117.622-.273.894-.194.622-.233.583-.233.623-.234.658-.233.587-.428.853-.31.506-.545.625-.39.425-.66.622-.855.854-.505.43-.74.581-.504.31-.778.429-.505.232-.856.31-.583.195-.622.159-.622.114-2.372.352-.582.04-.856.075h-.622l-1.244-.039-1.01-.076h-.623l-1.244.076-.972.04-.661.038-.583-.039h-2.721l-.583-.039-1.672-.157-.312-.153-.193-.195-.077-.428-.04-.62.04-.315.077-1.164v-.541l.039-.896v-.584l.039-.621v-.623l-.04-2.063v-.62l-.076-2.06.039-.585.039-.852.077-.585.039-.659v-.625l-.077-1.011-.04-.659v-.352l-.038-.658.154-2.063v-.62l-.039-2.065v-.619l-.116-2.057v-1.516l.04-.626.115-.582.08-.428.154-.234.428-.114.661-.082.583-.076.623-.038 3.421.038h.621l1.867.115.31.043h.7l1.634-.082.583-.038h.621l.972.077 1.244.081.621.076 1.012.156.623.115.583.159 1.4.505.582.27.583.31.545.31 1.283.897.505.43.466.384.856.82.389.386.35.43.271.504.428.855.234.585.194.62.234.623.194.623.155.622.156.854.117.625.116.656.077.625.04.935.037.62zM1225.268 287.5l-.037.625-.157 2.096-.037.39-.156.274-.195.156-5.093.153h-.621l-2.062-.153-.621.04-2.021.15-.622.045h-2.684l-2.021-.16h-.621l-3.344.196-1.322-.08-.468-.076-.272-.195-.116-.27-.077-.426-.077-.896-.04-.624.04-.581v-.583l.155-2.063v-.62l.04-2.06-.04-.625-.116-2.057-.039-.626.077-2.098v-3.302l.155-2.062-.04-.623-.115-2.057-.04-.626v-.934l.077-1.162v-.585l.117-2.024.04-.541.116-.311.195-.159.31-.036.506-.079 2.528.154 2.37-.039h.623l2.332.159h.622l2.333-.159h.623l5.286.079.66-.04 1.323-.114h.972l.544.114.233.196.08.27.076.506v1.05l-.077.974v.661l.04.97.038.585-.039.585-.079.461-.154.276-.195.154-.467.081h-.31l-.623.039-3.653-.082h-.623l-1.983.082h-.621l-2.023-.082-1.749-.114h-.583l-.31.037-.39.077-.194.196-.04.232-.076.43-.08.934v.62l.04.662.04.424.077.276.154.193.428.117 1.244.078 1.244-.078h3.695l4.355-.232 1.204.076.428.075.233.196.116.235.04.43.076.66.04.66v1.28l.077.896-.077 1.17-.077.465-.157.272-.27.192-.39.081h-.778l-1.749-.196-.623-.038-3.109.194-2.488-.08h-.623l-1.554-.114-.661.038-.467.038-.193.118-.118.272-.039.583-.117.972-.04.619v.857l.04.388.117.27.156.157.428.04 2.137.08h.622l2.1-.156 2.76.156h.622l2.76-.156h.583l.583.036 1.4.158.233.115.156.232.04.43zM1251.505 289.33l-.04.62v.352l-.115.468-.235.271-.27.115-.39.076h-.312l-.543.044-4.317-.235h-2.915l-3.5.235-2.253-.159h-2.877l-1.79.115h-.582l-.544-.038-.428-.077-.272-.156-.194-.235-.079-.461v-.625l.195-1.476.039-.583-.155-2.063v-.62l.077-2.06v-.625l.077-4.743v-.618l-.154-4.743v-.625l-.04-2.06v-3.302l-.078-1.166v-.587l.039-.348.117-.505.155-.235.272-.115.428-.08h.31l.584-.04 1.904.12h.623l2.76-.04h.39l.271.155.195.27v3.386l.077 2.255v.62l-.117 2.256v.622l.079 2.255v.62l.117 2.257v.623l-.233 5.133.037.386.04.194.077.196.194.154.467.08 1.321.076 1.167-.076h.621l5.599-.08.623-.039 1.321-.155.621-.04h.584l.467.12.272.231.116.273.04.427.039 2.175.039.625zM1296.358 287.62l-.31.309-.702.625-.465.347-.739.544-.467.314-.777.426-.505.27-.896.43-.583.196-.661.194-.66.115-.972.196-1.362.15-.698.045-.972.076h-2.022l-.66-.04-.66-.08-.664-.115-.66-.156-.584-.19-1.749-.469-.855-.313-.505-.23-.739-.429-.466-.352-.506-.348-.544-.349-1.01-.857-.468-.466-.427-.505-.428-.584-.35-.541-.31-.544-.273-.55-.388-.814-.583-1.631-.273-.781-.388-1.162-.08-.586-.038-.894.039-.585.04-.62v-.661l.077-1.32.039-.626.117-.58.156-.854.155-.587.193-.58.195-.544.273-.779.272-.546.272-.582.312-.582.348-.587.35-.541.39-.506.427-.544.466-.505.467-.43.505-.425.467-.39 1.244-.854.507-.313.542-.31 1.167-.543.661-.235.622-.196 1.321-.31.663-.117.66-.078 1.205-.075.856-.076.583.036.856.04 1.437.195.544.114.895.156 1.361.388.544.232.855.506.544.313 1.01.7 1.207.856.427.31.233.195.273.271.077.31-.04.31-.232.316-.35.424-.428.43-.428.39-.427.347-.428.429-.66.776-.428.47-.195.194-.35.31-.271.115-.273.039-.272-.079-.428-.233-.74-.543-.504-.273-.856-.39-.543-.19-.856-.235-.583-.117-.972-.077h-.622l-.855.077-.623.156-.854.27-.584.235-.506.196-.777.386-.544.39-.272.234-.467.505-.35.545-.271.506-.273.544-.232.58-.195.625-.117.661-.077.582-.077 1.169v.619l.039.972.039.582.194.896.195.582.27.661.313.583.582.857.428.467.739.62.505.348.778.39.582.235.856.232.623.117.932.042h.895l.544-.12.31-.076.583-.195.973-.35.622-.275.584-.271.505-.273.737-.467.507-.385.39-.274.233-.08.349.08.427.274.428.385.154.235.39.428.622.777.39.467 1.049 1.205.35.47.194.194.195.347zM1322.36 287.5l-.038.625-.157 2.096-.037.39-.156.274-.195.156-5.093.153h-.621l-2.062-.153-.621.04-2.021.15-.622.045h-2.684l-2.021-.16h-.621l-3.344.196-1.322-.08-.468-.076-.272-.195-.116-.27-.077-.426-.077-.896-.04-.624.04-.581v-.583l.155-2.063v-.62l.039-2.06-.04-.625-.115-2.057-.04-.626.078-2.098v-3.302l.155-2.062-.04-.623-.115-2.057-.04-.626v-.934l.078-1.162v-.585l.116-2.024.039-.541.117-.311.195-.159.31-.036.506-.079 2.528.154 2.37-.039h.623l2.332.159h.623l2.332-.159h.622l5.287.079.66-.04 1.323-.114h.972l.544.114.233.196.079.27.077.506v1.05l-.077.974v.661l.039.97.039.585-.039.585-.079.461-.155.276-.194.154-.467.081h-.31l-.623.039-3.654-.082h-.622l-1.983.082h-.621l-2.023-.082-1.75-.114h-.582l-.31.037-.39.077-.195.196-.039.232-.077.43-.079.934v.62l.04.662.04.424.076.276.156.193.427.117 1.244.078 1.245-.078h3.694l4.354-.232 1.204.076.428.075.234.196.116.235.039.43.077.66.04.66v1.28l.077.896-.077 1.17-.077.465-.156.272-.272.192-.388.081h-.779l-1.75-.196-.622-.038-3.11.194-2.487-.08h-.623l-1.555-.114-.661.038-.467.038-.193.118-.117.272-.04.583-.117.972-.039.619v.857l.04.388.117.27.156.157.428.04 2.137.08h.621l2.1-.156 2.76.156h.623l2.759-.156h.584l.582.036 1.402.158.232.115.156.232.039.43zM1353.3 269.192l-.04.62v5.752l.117 2.259v.621l.079 5.134v.656l-.04.316-.04.658-.116 1.867.04 2.256-.04.544-.155.465-.31.43-.389.272-.35.114-.546.039-1.982.08-.622.037-.972.039h-.621l-.505-.12-.468-.19-.466-.351-.35-.506-.583-1.125-.35-.505-1.515-1.906-.39-.47-1.517-1.863-.35-.505-1.36-2.024-.35-.463-1.516-1.868-.39-.468-1.437-1.901-.35-.315-.273.119-.117.466-.077 1.94v.626l.04 1.945v.62l.037 2.177v.624l-.116 2.175.04.623.232 1.554.04.626-.116.505-.274.27-.27.075-.467.079-.312.036-.66.044-1.79-.044h-.62l-1.595.081h-.623l-.583-.037-.426-.08-.311-.193-.156-.276-.08-.386-.036-.27v-.586l.077-1.284.039-.62-.116-2.062v-.62l.077-4.742.039-.625.116-2.06.04-.62v-2.683l-.156-2.058v-.626l.156-2.06-.04-.622-.155-2.1-.04-.622v-.893l.04-.585.077-.582.077-.43.117-.27.234-.114.426-.082 1.167-.077 1.167.077h2.916l.466.042.195.154.233.35 1.632 1.752.39.465 1.438 1.865.39.467 1.437 1.905.39.464 1.398 1.946.35.465 1.478 1.87.388.466 1.4 1.94.31.272.313.044.272-.196v-.43l-.272-1.63-.04-.624.117-1.672v-.62l-.156-2.375v-.62l.156-2.372-.039-.62-.117-1.44v-.972l.117-.505.156-.31.27-.158.468-.076h.35l.662-.039 1.749.115h.621l1.322-.076.584.039.894.037.427.077.272.118.233.273.08.541.038.355.04.659-.078 1.205-.079.623zM1381.672 266.161l-.037.581.037 1.167-.037.619-.041.31-.076.468-.116.272-.235.195-.466.081h-.622l-1.166-.12-.622-.037-1.79.115h-.62l-.974-.078h-.582l-.272.039-.39.12-.154.232-.04.505-.155 2.294v.62l.156 2.336-.04.62-.155 2.336-.04.62.079 2.29v3.579l-.08 2.295.04.58.196 1.75.039.626-.118.465-.192.19-.506.08-.74-.035-.972-.12-.66-.039-1.75.115h-.621l-1.75-.115-.467-.037-.234-.119-.077-.425v-.662l.118-1.634.039-.62v-2.918l.039-2.33v-.626l.039-2.29v-.62l-.156-2.336-.037-.62v-2.956l-.08-2.294v-.548l-.117-.309-.388-.076h-.582l-1.244.076h-.7l-1.05-.076-.661-.039-.663.039-.892.037h-.584l-.31-.037-.428-.077-.234-.156-.154-.235-.08-.39v-.271l-.038-.62.079-1.167v-.584l-.118-1.476.04-.625.117-.506.154-.27.234-.115.388-.08h.894l1.439.117h.623l2.254-.157h.621l2.295.196h.621l2.878-.196 2.255.04h.62l2.917-.04h2.877l1.284-.075.662.036.309.04.467.08.271.154.196.27.076.467v.273l.04.586zM1400.599 275.88l.505-.195.467-.275.39-.465.271-.581.155-.624.037-.62-.037-.662-.08-.664-.155-.58-.27-.585-.351-.465-.427-.352-.545-.235-.853-.19-.623-.08-1.945-.04h-.623l-1.981.12-.467.037-.273.114-.232.235-.04.43.04.895.077.62.077.662.04.658-.08 2.142.04.426.077.235.273.115.467.074 2.021.16h.623l2.564-.16zm10.924 15.122-.508.154h-2.719l-2.14-.039h-.621l-1.75.077h-.505l-.348-.153-.312-.315-1.245-1.748-.35-.462-1.243-1.672-.351-.47-1.087-1.786-.35-.468-1.244-1.672-.272-.311-.234-.119-.466-.037-1.244-.077-.506.038-.312.235-.117.505-.076 2.138.039.622.155 2.178.04.62.037.934v.623l-.037.619-.08.47-.193.194-.43.114h-.62l-1.866-.114-1.788.114h-.622l-1.788-.114-.467-.078-.233-.156-.08-.39-.038-.546-.04-.58.078-1.01.039-.626.156-2.096v-.625l-.116-2.096-.04-.625-.04-2.06v-.619l.118-2.103v-.618l-.117-2.103v-.619l.117-2.102v-.62l.077-2.064v-.62l-.04-2.096v-.626l-.076-1.28.039-.585.039-.23.117-.506.232-.316.468-.115.31-.038.584-.036 1.748.074 4.628.155 2.644-.155h.622l2.564.155h1.478l.66.041.585.115.816.235.583.194.584.232.62.235.585.27.505.313.739.505.427.347.388.39.389.468.547.776.349.506.465.74.274.541.272.587.193.62.116.624.04.62.076.86v.618l-.037.623-.08.659-.115.662-.156.62-.232.586-.273.582-.35.582-.35.505-.348.468-.351.428-.621.62-.43.353-.776.427-.468.275-.505.27-.505.115-.31.119.155.31 1.399 1.982.349.466 1.4 1.904.388.466 1.401 1.945.39.467 1.202 1.401.35.424.197.43zM1436.167 277.47v-.66l-.043-.66-.04-.624-.233-1.162-.153-.55-.428-.851-.31-.505-.543-.7-.391-.43-.581-.62-.43-.35-1.01-.584-.543-.235-.625-.196-.62-.115-1.244-.075-.586.04-.854.035-.58.115-1.012.276-.624.235-.896.464-.543.35-.62.546-.43.465-.427.584-.311.505-.115.23-.352.817-.196.585-.114.274-.119.542-.076.544-.037.544-.04.586v.58l.04.626.113.62.043.35.154.585.08.27.19.545.157.31.31.547.196.31.428.543.234.27.468.468.776.664.544.346.62.31.586.234.816.27.58.12.973.116.663.038.972-.077.62-.076.858-.195.543-.234.855-.543.465-.348.625-.625.386-.427.505-.62.353-.544.387-.857.232-.583.196-.896.076-.581zm8.16-.66-.037.622-.077.896-.075.583-.235 1.167-.081.893-.075.585-.116.62-.157.582-.391.82-.272.54-1.048 1.752-.348.505-.39.505-.386.43-.625.658-.43.39-.504.386-.468.352-.696.468-.505.31-.587.31-.542.232-.778.31-.582.16-1.243.39-.663.19-.624.156-.658.158-.662.115-.658.037h-2.103l-1.32-.076-1.283-.156-.548-.115-.58-.158-2.098-.702-.624-.189-.663-.27-1.243-.55-.582-.31-.583-.347-.505-.39-.506-.43-.468-.506-.426-.505-1.051-1.05-.388-.465-.388-.505-.31-.505-.313-.779-.582-1.748-.235-.815-.115-.585-.117-.62-.116-.584-.117-.856-.04-.584-.037-.661v-.662l.037-.658.04-.702.077-.66.116-.66.157-.66.193-.665.195-.581.235-.619.27-.896.272-.625.155-.35.313-.58.543-.857.39-.544.194-.31.467-.466.661-.544.505-.39.506-.35 1.165-.776.505-.315.544-.31.543-.27.82-.35.544-.195.581-.196.583-.156 1.476-.273.587-.115 1.945-.232 1.243-.077 1.164.077.933.037.663.078.658.117.663.159.663.114.62.156.581.155.587.195.814.31.543.231 1.283.74.505.355.51.385.658.625.428.386.43.43.347.466.543.738.31.506.277.505.31.505.43.776.31.506.27.582.196.548.19.89.235 1.17.081.662.113.658zM1481.714 281.203l.27-.582.235-.661.156-.583.157-.857.04-.544.038-.89v-1.245l-.039-.625-.118-.896-.154-.581-.08-.234-.31-.581-.582-.815-.196-.196-.39-.429-.424-.43-.467-.346-.857-.505-.544-.235-.543-.115-.62-.12-.973-.036-.663-.038h-.972l-.853-.04-.586.04-.853.114-.43.12-.195.19-.115.466-.037.354-.04.581.077 1.17.039.62.076.855.08.62.04.626v.62l-.04.856v1.865l-.038.661-.043.62-.076.859v.541l-.04.896.04.584.119.932.153.424.233.196.467.039 3.613-.235.896-.036.626-.114.657-.195.625-.235.58-.27.505-.355.7-.62.387-.465zm8.865-3.342-.04.659-.036.935-.119.622-.272.894-.196.622-.232.583-.234.623-.23.658-.233.587-.43.853-.31.506-.547.625-.387.425-.662.622-.854.854-.504.43-.74.581-.505.31-.776.429-.507.232-.857.31-.581.195-.624.159-.62.114-2.373.352-.582.04-.858.075h-.62l-1.243-.039-1.01-.076h-.626l-1.244.076-.968.04-.661.038-.583-.039h-2.721l-.586-.039-1.67-.157-.314-.153-.194-.195-.077-.428-.037-.62.037-.315.077-1.164v-.541l.04-.896v-.584l.04-.621v-.623l-.04-2.063v-.62l-.08-2.06.04-.585.04-.852.078-.585.037-.659v-.625l-.076-1.011-.04-.659v-.352l-.04-.658.156-2.063v-.62l-.037-2.065v-.619l-.12-2.057v-1.516l.042-.626.114-.582.077-.428.158-.234.428-.114.658-.082.587-.076.62-.038 3.421.038h.624l1.864.115.311.043h.7l1.635-.082.581-.038h.62l.972.077 1.245.081.624.076 1.011.156.62.115.585.159 1.398.505.585.27.583.31.542.31 1.283.897.505.43.467.384.857.82.387.386.353.43.271.504.43.855.233.585.19.62.234.623.196.623.157.622.152.854.12.625.115.656.08.625.039.935.037.62zM1517.01 287.5l-.042.625-.152 2.096-.04.39-.157.274-.194.156-5.092.153h-.625l-2.06-.153-.618.04-2.025.15-.62.045h-2.683l-2.023-.16h-.624l-3.341.196-1.321-.08-.466-.076-.273-.195-.118-.27-.077-.426-.077-.896-.037-.624.037-.581v-.583l.155-2.063v-.62l.037-2.06-.037-.625-.115-2.057-.04-.626.077-2.098v-3.302l.158-2.062-.043-.623-.115-2.057-.037-.626v-.934l.075-1.162v-.585l.12-2.024.037-.541.115-.311.196-.159.31-.036.504-.079 2.528.154 2.372-.039h.62l2.336.159h.62l2.336-.159h.62l5.286.079.661-.04 1.321-.114h.972l.548.114.23.196.08.27.077.506v1.05l-.076.974v.661l.037.97.039.585-.04.585-.076.461-.156.276-.195.154-.468.081h-.31l-.62.039-3.655-.082h-.624l-1.983.082h-.62l-2.021-.082-1.75-.114h-.586l-.31.037-.386.077-.196.196-.037.232-.081.43-.076.934v.62l.039.662.037.424.08.276.154.193.428.117 1.244.078 1.245-.078h3.694l4.352-.232 1.205.076.43.075.233.196.114.235.043.43.076.66.04.66v1.28l.075.896-.076 1.17-.076.465-.158.272-.27.192-.392.081h-.777l-1.748-.196-.621-.038-3.112.194-2.488-.08h-.62l-1.559-.114-.657.038-.468.038-.195.118-.115.272-.037.583-.12.972-.039.619v.857l.04.388.12.27.151.157.43.04 2.136.08h.622l2.1-.156 2.763.156h.62l2.76-.156h.581l.586.036 1.397.158.235.115.156.232.039.43zM1558.792 289.33l-.04.62v.352l-.118.468-.233.271-.272.115-.387.076h-.313l-.546.044-4.313-.235h-2.917l-3.499.235-2.255-.159h-2.878l-1.787.115h-.581l-.544-.038-.43-.077-.272-.156-.196-.235-.075-.461v-.625l.195-1.476.04-.583-.16-2.063v-.62l.077-2.06v-.625l.081-4.743v-.618l-.158-4.743v-.625l-.037-2.06v-3.302l-.077-1.166v-.587l.04-.348.115-.505.156-.235.272-.115.429-.08h.31l.58-.04 1.907.12h.622l2.762-.04h.387l.272.155.196.27v3.386l.076 2.255v.62l-.115 2.256v.622l.076 2.255v.62l.12 2.257v.623l-.234 5.133.039.386.039.194.076.196.196.154.465.08 1.321.076 1.168-.076h.619l5.601-.08.619-.039 1.327-.155.618-.04h.587l.467.12.272.231.116.273.037.427.037 2.175.043.625zM1581.219 279.067l-.157-.505-.854-2.645-.195-.582-.777-2.296-.196-.505-.39-.272-.506-.113-.424.113-.39.39-1.05 2.642-.233.585-1.01 2.603-.12.585.12.464.429.195.544.081h2.449l1.825.115.506-.157.309-.31zm12.984 10.964.115.544-.272.427-.428.193-.506.08h-.544l-.892-.08-.587-.04h-1.748l-2.408.158-.505-.196-.233-.271-.195-.43-1.207-3.263-.27-.391-.35-.077-.466-.036-2.336-.16h-.62l-2.916-.075-2.332-.04h-.587l-.58.04h-1.788l-.505.075-.31.196-.234.468-.896 2.644-.234.62-.428.505-.582.195h-.623l-2.256-.115h-.62l-2.41.153-.506.04-.468-.234-.31-.424.038-.506.08-.316.23-.62.548-1.205.234-.58.972-2.18.229-.541 1.016-2.18.23-.582.894-2.101.233-.58 1.048-2.18.235-.544 1.401-3.188 1.087-2.33.272-.626.857-1.75.272-.62.739-1.786.235-.585.694-1.595.196-.427.39-.234.582-.115 1.788-.08h3.036l1.787.039.659.117.429.31.195.505.544 1.518.233.586.973 1.825.232.543.855 1.905.233.545.7 1.984.234.542.854 1.869.232.543.859 1.905.233.545.778 1.946.233.544 1.205 2.405.93 1.832.272.544 1.053 2.448zM1629.025 275.88l.505-.195.467-.275.386-.465.272-.581.156-.624.04-.62-.04-.662-.076-.664-.157-.58-.272-.585-.352-.465-.424-.352-.548-.235-.855-.19-.62-.08-1.944-.04h-.622l-1.984.12-.467.037-.272.114-.233.235-.04.43.04.895.08.62.077.662.037.658-.076 2.142.039.426.076.235.272.115.466.074 2.022.16h.624l2.564-.16zm10.924 15.122-.506.154h-2.72l-2.14-.039h-.625l-1.75.077h-.505l-.348-.153-.309-.315-1.245-1.748-.352-.462-1.244-1.672-.348-.47-1.087-1.786-.353-.468-1.244-1.672-.272-.311-.234-.119-.466-.037-1.244-.077-.506.038-.309.235-.115.505-.08 2.138.038.622.158 2.178.037.62.039.934v.623l-.04.619-.075.47-.196.194-.428.114h-.62l-1.868-.114-1.788.114h-.62l-1.792-.114-.463-.078-.233-.156-.081-.39-.037-.546-.04-.58.077-1.01.039-.626.157-2.096v-.625l-.114-2.096-.043-.625-.04-2.06v-.619l.12-2.103v-.618l-.12-2.103v-.619l.12-2.102v-.62l.076-2.064v-.62l-.039-2.096v-.626l-.076-1.28.037-.585.04-.23.114-.506.233-.316.468-.115.31-.038.586-.036 1.75.074 4.623.155 2.644-.155h.626l2.564.155h1.477l.657.041.587.115.816.235.581.194.586.232.62.235.585.27.505.313.74.505.424.347.391.39.387.468.548.776.348.506.466.74.272.541.272.587.196.62.115.624.043.62.075.86v.618l-.037.623-.08.659-.115.662-.158.62-.232.586-.272.582-.348.582-.354.505-.348.468-.348.428-.624.62-.428.353-.777.427-.468.275-.505.27-.506.115-.309.119.157.31 1.396 1.982.352.466 1.398 1.904.39.466 1.402 1.945.386.467 1.206 1.401.348.424.196.43zM1666.104 287.5l-.037.625-.157 2.096-.04.39-.151.274-.196.156-5.096.153h-.62l-2.059-.153-.624.04-2.021.15-.624.045h-2.68l-2.024-.16h-.62l-3.343.196-1.324-.08-.467-.076-.273-.195-.115-.27-.08-.426-.076-.896-.039-.624.04-.581v-.583l.155-2.063v-.62l.04-2.06-.04-.625-.117-2.057-.039-.626.076-2.098v-3.302l.157-2.062-.036-.623-.12-2.057-.037-.626v-.934l.08-1.162v-.585l.114-2.024.037-.541.12-.311.196-.159.31-.036.505-.079 2.527.154 2.369-.039h.624l2.33.159h.624l2.332-.159h.623l5.287.079.663-.04 1.32-.114h.973l.543.114.234.196.076.27.08.506v1.05l-.08.974v.661l.04.97.04.585-.04.585-.078.461-.152.276-.194.154-.468.081h-.31l-.625.039-3.655-.082h-.62l-1.984.082h-.624l-2.021-.082-1.748-.114h-.583l-.31.037-.39.077-.196.196-.037.232-.077.43-.076.934v.62l.04.662.036.424.077.276.156.193.43.117 1.244.078 1.242-.078h3.69l4.358-.232 1.206.076.424.075.233.196.12.235.037.43.077.66.037.66v1.28l.08.896-.08 1.17-.076.465-.153.272-.276.192-.387.081h-.776l-1.75-.196-.623-.038-3.108.194-2.488-.08h-.626l-1.553-.114-.663.038-.466.038-.191.118-.119.272-.039.583-.114.972-.043.619v.857l.043.388.114.27.158.157.424.04 2.14.08h.62l2.102-.156 2.759.156h.625l2.759-.156h.581l.583.036 1.401.158.234.115.153.232.04.43zM1687.598 273.778v-.973l-.119-.581-.115-.31-.234-.505-.156-.235-.424-.466-.315-.195-.581-.31-1.011-.274-.625-.075h-.892l-1.167.075-1.712-.117h-.58l-.31.042-.43.075-.156.115-.115.273-.077.467v.896l.115 1.44.039.62.039 2.254.037.467.119.27.429.16 2.021.15 2.64-.15.702-.082.662-.153.31-.12.544-.31.233-.15.39-.391.154-.235.276-.505.115-.27.157-.626zm8.046-.7.037.586-.037.58-.039.662-.196.974-.114.62-.314.776-.23.546-.39.74-.348.506-.548.738-.424.464-.505.467-.505.43-.507.346-.547.353-.853.386-.581.272-.663.276-.583.192-.857.232-.581.12-.586.074-.62.04-1.01.08h-3.266l-.662-.041-.663.041-.657.076-.468.079-.12.27-.036.506-.153 2.607v.62l.039 1.168-.04.58-.038.858-.08.424-.115.235-.196.08-.428.076-1.245.079-1.515-.08h-.62l-1.245.08-.623-.04-.892-.04-.505-.155-.234-.235-.08-.461-.077-.585-.039-.62v-4.162l.154-2.06v-.625l-.154-2.057v-.626l-.076-4.741v-.62l.154-2.101v-.623l-.116-2.057v-.626l.153-2.06v-.58l-.076-1.166.039-.587.037-.312.08-.424.115-.232.195-.196.43-.039 1.123-.081.896.04h.583l2.607-.04h2.602l2.603.157h2.57l1.477-.076.544.039h.31l.58.115.896.232.626.196.62.233.58.27.586.35.506.39.701.62.463.391.194.235.702.7.39.505.191.235.276.465.153.235.232.505.196.582.154.544.04.27.156.544.08.314.152.544.234 1.088zM1725.612 277.47l.077 1.246-.039.58-.039.896-.08.584-.153.932-.118.624-.154.89-.156.588-.31.814-.195.544-.35.816-.275.55-.506.776-.387.505-.465.505-.505.424-.778.626-.505.346-.777.468-.505.27-.82.392-.582.196-.853.309-.587.156-.89.155-.586.118-1.208.076h-1.785l-.892-.076-.587-.044-2.135-.23-.625-.116-.348-.04-.625-.194-.31-.115-.62-.27-.855-.39-.583-.35-.585-.39-1.011-.856-.425-.426-.506-.664-.352-.467-.62-1.01-.353-.545-.31-.58-.271-.625-.234-.581-.157-.544-.152-.586-.159-.854-.114-.662-.08-.658-.076-1.323-.04-.62.115-2.375v-.62l-.076-2.372v-.62l.119-2.376v-3.612l-.08-1.244v-.66l.037-.665.12-.62.27-.352.506-.115 1.282-.077 1.478.115h.624l1.282-.037.582.037.896.039.505.12.31.309.114.505.044.544v.587l-.08 1.515v.62l.118 2.373v.619l-.037 2.376v.62l-.12 2.372v.62l-.037 2.374.037.62.076.97.118.626.235.852.233.586.387.893.39.467.62.66.506.31.857.31.583.16 1.01.074h.623l1.011-.194.583-.154.737-.352.505-.31.626-.544.385-.466.43-.816.27-.585.196-.62.116-.625.156-1.162.039-.624-.157-2.37v-.624l.118-2.412v-.62l.077-2.372v-.62l-.077-2.412-.037-.62-.118-1.635v-.975l.156-.541.349-.31.505-.12h.819l1.983.157h.62l1.553-.118h.625l.582.042.505.114.315.272.037.468.039 1.167v.584l-.04.895v.62l.115 2.412v.62l-.076 2.372v.62l-.157 2.412zM1748.345 282.643l-.037-.544-.115-.542-.31-.55-.234-.271-.505-.505-.624-.386-.583-.194-.27-.039-.548-.04-1.75.079-.658.036h-2.292l-.587.038h-.233l-.467.082-.348.153-.115.156-.043.387v.858l.043.62v.7l-.08.934v.582l.08.427.152.235.274.153.504.043 3.074-.043 2.408-.077 1.324-.076.62-.076.428-.195.31-.273.158-.232.272-.586.115-.62zm-9.796-10.3.04.62.08.428.152.273.31.15.467.045h.896l1.322-.08.662.036.891.044 1.325.076h.852l.506-.12.468-.191.39-.27.272-.354.234-.385.115-.506v-.664l-.115-.542-.353-.468-.543-.391-.233-.115-.582-.156-.273-.04-.662-.074h-.348l-.624-.082-.892-.074-.586-.04-1.902.114h-.505l-.39.042-.349.078-.234.115-.156.195-.115.505-.12.933-.037.622zm17.652 10.338-.039.623-.076 1.01-.119.583-.272.816-.233.544-.39.738-.35.505-.62.7-.428.43-.972.7-.505.349-.544.27-.586.272-.62.195-.58.196-1.752.348-.896.12-.624.036-.929.079h-.625l-2.135.081h-3.384l-2.179-.12h-.62l-2.72.039h-1.478l-.624-.079-.544-.075-.31-.12-.196-.196-.076-.424-.039-.585.04-.543v-.618l.038-.316v-.659l.114-2.063-.037-.62-.04-1.009-.036-.664-.04-.347v-.664l.04-1.01v-1.672l.157-2.06v-.62l-.081-2.063v-.619l-.039-2.06.039-.625.119-2.06.037-.623-.156-2.06-.04-.62-.114-1.166v-.935l.153-.468.39-.232.544-.115.624-.038h2.097l2.141-.082 3.379.196 2.103-.076h.62l2.14.036h.618l2.256.159.663.076.661.115.62.156.858.31.582.234.739.43.504.348.664.543.461.468.43.547.31.544.428.777.234.544.194.58.116.625.158 1.011.039.62-.04.661-.118.664-.233.891-.272.585-.35.582-.428.505-.93.935-.118.27.119.31.347.354.468.424.466.506.19.313.392.544.349.583.276.581.152.352.195.619.158.664.076.662zM1782.046 289.33l-.037.62v.352l-.119.468-.235.271-.27.115-.387.076h-.315l-.544.044-4.313-.235h-2.917l-3.499.235-2.255-.159h-2.878l-1.788.115h-.582l-.544-.038-.428-.077-.272-.156-.196-.235-.076-.461v-.625l.195-1.476.04-.583-.159-2.063v-.62l.077-2.06v-.625l.081-4.743v-.618l-.158-4.743v-.625l-.037-2.06v-3.302l-.077-1.166v-.587l.039-.348.116-.505.156-.235.272-.115.428-.08h.31l.582-.04 1.906.12h.62l2.764-.04h.387l.272.155.196.27v3.386l.075 2.255v.62l-.115 2.256v.622l.077 2.255v.62l.119 2.257v.623l-.233 5.133.037.386.04.194.075.196.196.154.466.08 1.322.076 1.168-.076h.618l5.602-.08.618-.039 1.327-.155.619-.04h.586l.466.12.273.231.115.273.039.427.037 2.175.043.625zM1794.249 285.054v.62l-.156 2.102v.62l-.04 2.14v.425l-.118.233-.31.081-.545.036-1.981-.036h-2.413l-1.94-.158-.234-.076-.12-.12v-.386l-.075-.97v-.626l-.04-.58v-.584l-.117-2.1.037-.62.12-2.102.037-.62-.119-2.14v-.62l-.039-2.102v-3.34l-.037-2.142v-.62l.037-2.102v-3.34l-.076-2.14.115-.43.233-.152.39-.039h.31l.587-.041.93.041h.625l1.788-.081h2.41l.426.081.08.235.039.424.076 1.01.037.626v3.806l.044 2.102v.62l-.044 2.141v.619l.044 2.102v.62l-.081 2.102v3.38zM1824.76 287.62l-.309.309-.701.625-.467.347-.734.544-.467.314-.777.426-.51.27-.892.43-.581.196-.663.194-.661.115-.973.196-1.36.15-.7.045-.972.076h-2.022l-.661-.04-.659-.08-.662-.115-.662-.156-.582-.19-1.75-.469-.853-.313-.505-.23-.738-.429-.468-.352-.505-.348-.548-.349-1.01-.857-.463-.466-.43-.505-.428-.584-.348-.541-.315-.544-.27-.55-.387-.814-.587-1.631-.272-.781-.386-1.162-.081-.586-.037-.894.037-.585.044-.62v-.661l.076-1.32.039-.626.118-.58.154-.854.156-.587.194-.58.192-.544.272-.779.276-.546.271-.582.312-.582.347-.587.353-.541.385-.506.43-.544.466-.505.468-.43.504-.425.468-.39 1.244-.854.506-.313.544-.31 1.166-.543.66-.235.623-.196 1.32-.31.663-.117.658-.078 1.206-.075.857-.076.583.036.853.04 1.439.195.544.114.896.156 1.358.388.548.232.854.506.544.313 1.01.7 1.206.856.428.31.233.195.272.271.077.31-.039.31-.233.316-.348.424-.43.43-.429.39-.424.347-.428.429-.663.776-.429.47-.19.194-.354.31-.272.115-.27.039-.273-.079-.428-.233-.74-.543-.505-.273-.853-.39-.544-.19-.856-.235-.583-.117-.972-.077h-.624l-.855.077-.62.156-.856.27-.582.235-.506.196-.777.386-.548.39-.27.234-.469.505-.346.545-.272.506-.274.544-.232.58-.196.625-.114.661-.08.582-.077 1.169v.619l.037.972.04.582.194.896.196.582.271.661.31.583.587.857.424.467.74.62.504.348.778.39.585.235.853.232.624.117.931.042h.896l.543-.12.314-.076.582-.195.972-.35.62-.275.586-.271.504-.273.74-.467.506-.385.385-.274.235-.08.352.08.425.274.428.385.157.235.386.428.625.777.385.467 1.05 1.205.353.47.195.194.19.347zM1846.059 279.067l-.152-.505-.86-2.645-.194-.582-.777-2.296-.196-.505-.385-.272-.507-.113-.428.113-.387.39-1.052 2.642-.234.585-1.011 2.603-.115.585.115.464.43.195.543.081h2.45l1.826.115.506-.157.313-.31zm12.984 10.964.118.544-.27.427-.43.193-.505.08h-.543l-.896-.08-.582-.04h-1.75l-2.412.158-.505-.196-.233-.271-.195-.43-1.201-3.263-.276-.391-.348-.077-.468-.036-2.331-.16h-.625l-2.912-.075-2.335-.04h-.583l-.585.04h-1.788l-.505.075-.31.196-.233.468-.896 2.644-.23.62-.429.505-.586.195h-.62l-2.254-.115h-.625l-2.407.153-.505.04-.467-.234-.31-.424.038-.506.077-.316.233-.62.543-1.205.235-.58.97-2.18.235-.541 1.01-2.18.234-.582.895-2.101.229-.58 1.053-2.18.234-.544 1.397-3.188 1.09-2.33.273-.626.854-1.75.27-.62.74-1.786.234-.585.7-1.595.196-.427.387-.234.585-.115 1.788-.08h3.03l1.789.039.661.117.43.31.192.505.546 1.518.235.586.968 1.825.232.543.859 1.905.234.545.7 1.984.23.542.857 1.869.233.543.854 1.905.233.545.777 1.946.235.544 1.205 2.405.934 1.832.272.544 1.048 2.448z" style="fill:#fff;fill-opacity:1;fill-rule:nonzero;stroke:none;stroke-width:1.33333" transform="matrix(.26458 0 0 .26458 -310.085 -15.435)"/><path d="M0 0a7.65 7.65 0 0 0-7.652-7.649A7.649 7.649 0 0 0-15.304 0 7.652 7.652 0 0 0 0 0Z" style="fill:none;stroke:#f4752d;stroke-width:2;stroke-linecap:butt;stroke-linejoin:miter;stroke-miterlimit:10;stroke-dasharray:none;stroke-opacity:1" transform="matrix(.35278 0 0 -.35278 58.119 3.052)" clip-path="url(#a)"/><path d="m1204.374 146.862.453-1.969.312-1.219.907-2.125 1.218-1.828 1.672-1.672.907-.765 2.28-1.063 1.22-.453 2.578-.453h1.218l2.735-.156h1.219l2.593-.156 3.64-.297 2.438-.453 2.579-.47 2.437-.296 3.484-.297 2.438-.469 2.578-.453 2.438-.75 2.578-.765 2.28-.907 3.204-1.672 1.969-1.218 2.437-2.282 1.672-1.671 1.969-2.594 1.375-1.969 1.672-2.89 1.062-2.282.907-2.578.609-2.281.766-3.5.296-2.125.157-3.344v-2.281l-.453-3.64-.454-2.282-.765-2.14-.766-2.282-1.062-2.266-1.063-2.14-1.969-2.735-1.53-1.968-1.673-1.985-1.968-1.968-1.985-1.672-2.125-1.22-3.187-1.515-2.282-.922-2.28-.75-4.86-1.53-2.281-.75-3.188-.766-2.281-.454-2.281-.156h-2.438l-3.5.156h-5.016l-2.421.157-3.344.14-2.125.313-2.281.453-2.438.453-3.344.766-2.437.765-2.578 1.063-4.563 2.422-2.125 1.218-2.89 1.985-1.829 1.515-1.812 1.672-1.672 1.969-1.375 1.984-1.219 2.125-1.515 2.891-.766 2.281-.297 1.063-.453 2.437-.312 1.36-.297 2.28v2.579l.453.766 1.062.609 1.969.297 3.953.469 2.594.14h6.375l6.39.313 2.579-.156h1.375l2.28-.61 1.36-.906.766-2.125 1.062-2.281.766-.922 1.516-1.672.906-.61 1.984-1.062 3.188-1.062 2.125-.454 2.14-.156h2.266l2.281.156 2.14.297 3.345.922 1.968.906 1.516 1.829.61 1.062.765 2.438.297 1.203v3.343l-.906 3.204-1.375 1.968-1.063 1.063-2.281 1.375-1.203.61-2.75.609-3.797.14-2.734.156-1.36.157-7.765.453-2.422.312-2.594.453-2.578.61-3.797 1.203-2.281.766-3.188 1.515-1.984 1.063-3.031 1.984-1.829 1.219-2.734 2.125-1.672 1.515-2.594 2.735-1.203 1.984-1.078 2.422-.453 1.219-.75 2.437-.766 2.578-.453 2.438-.922 4.562-.453 4.563-.14 2.422.453 9.281v2.422l-.313 9.125.157 1.672.296.906 1.079.61 1.812.156 8.516.297 11.093.156h22.047l13.375-.75h8.516l11.094.594 2.28.156 3.345.156 2.125-.156 4.859-.75.922-.469.594-.906.312-1.516.156-2.125.141-2.437-.297-3.797v-6.235l-.156-2.437-.156-2.281-.297-2.125-.906-1.36-1.985-.468h-2.578l-5.016.468-2.437.14-17.781.313h-2.438l-7.75-.156h-12.312l-5.766.156-2.14-.156-1.516-.297-.156-.765zm168.722-7.297-.156-2.437-.453-2.579-.766-2.437-1.671-3.344-1.36-1.812-1.531-1.672-1.516-1.531-1.828-1.516-3.484-2.438-.61-1.203.454-1.218 1.062-1.22 2.578-2.437 1.375-1.672 1.828-2.875 2.125-3.953.766-1.984.297-.906.453-2.282.156-1.062v-2.594l-.156-2.578-.453-2.281-.906-3.188-.766-2.125-.906-2.281-1.063-2.437-1.375-1.97-.61-.921-1.515-1.672-1.984-1.969-1.969-1.672-2.281-1.671-2.125-1.375-2.125-1.063-2.14-.906-3.485-1.219-2.281-.766-2.438-.75-2.281-.468-3.5-.75-7.14-.922-3.5-.14-2.423-.157-2.594.156-2.734.297-5.156.906-2.594.313-2.578.453-2.594.61-2.578.906-2.437 1.062-2.282 1.219-2.265 1.375-2.281 1.515-2.282 1.375-1.984 1.672-1.969 1.813-1.672 1.984-1.375 2.281-1.062 2.125-1.063 3.047-1.515 4.25-.453 2.282-.47 3.343v1.672l.47.906.75.454 1.828.468 3.343.14 2.282.157 4.562-.297 2.281.14 6.375.313h3.797l2.14-.453 1.36-.922.766-1.812 1.062-1.984.61-.907 1.828-1.531 1.062-.75 2.125-.922 1.22-.453 2.28-.453 3.797-.297 2.281-.156 3.485.156 2.14.297 2.282.453 1.969.922 2.437 2.422.75 1.219 1.062 2.28.157 1.516-.156 1.532-.907 2.265-.765.922-1.672 1.672-1.063.75-2.422 1.078-1.218.453-2.594.61-3.344.453-2.266.156-1.078-.156-2.28-.156-4.704-.454-2.438-.156-5.156.453-.922.469-.609 1.063-.453 1.968-.156 2.735.156 3.343v2.282l-.156 2.125.156 2.14.312 2.266.453 1.828 1.063 1.219 1.828.61h3.344l3.344-.157 4.859-.297h3.797l2.578.156 2.594.297 2.422.453 1.984.922.906.453 2.735 1.813 1.53 1.828.61.922.75 2.265.313 1.22v2.28l-.313 1.22-.75 1.968-.765.922-1.516 1.672-.922.765-2.125 1.36-1.36.453-2.437.765-3.797.454h-2.437l-2.578-.297-2.594-.61-2.578-.765-1.063-.61-2.28-1.062-.907-.61-1.828-1.671-.922-.907-1.203-2.281-.313-1.375-.906-1.969-1.219-1.062-2.125-.453h-3.656l-6.984.593h-2.438l-5.172-.296-5.156.296-2.438.47-1.374 1.062-.297 1.672.765 3.484.453 2.14 1.22 3.032.75 2.125 1.218 3.203 1.219 2.125 1.359 2.281 1.531 1.828 2.422 2.422 4.266 3.5 1.969 1.219 3.203 1.828 2.265 1.063 2.281.906 2.282.765 3.5.907 2.437.453 2.281.453 2.579.312 5.171.297 8.657.313h2.437l3.344-.156 2.578-.297 2.594-.47 2.422-.608 3.344-.907 2.14-.61 3.188-1.062 2.125-.765 3.046-1.203 1.97-1.063 3.655-2.75 1.672-1.36 1.516-1.515 1.672-1.828.75-.922 1.672-2.125 1.828-3.187.453-.907.766-2.28.765-3.345.453-2.437.157-2.578v-2.438zm0 0" style="fill:#f4752d;fill-opacity:1;fill-rule:nonzero;stroke:none;stroke-width:1.33333" aria-label="23" transform="matrix(.26458 0 0 .26458 -310.085 -15.435)"/><path d="m0 0-.187-.312-1.214-1.619-.31-.374-1.278-1.557-.282-.311-.309-.156-.375-.063-.25-.031-1.524.094h-2.305l-.28.031-.095.03-.032.095v.093l.934 1.868.25.437.748 1.651.186.311.158.093h.373l.249.032h.499l.716-.032h.467l1.463.032h.466l.689.062.87-.062.312-.094z" style="fill:#fff;fill-opacity:1;fill-rule:nonzero;stroke:none" transform="matrix(.35278 0 0 -.35278 145.13 51.701)" clip-path="url(#b)"/></svg>