<?xml version="1.0" encoding="UTF-8" standalone="no"?>
<!-- Created with Inkscape (http://www.inkscape.org/) -->

<svg
   width="147.3942mm"
   height="35.07349mm"
   viewBox="0 0 147.3942 35.07349"
   version="1.1"
   id="svg1"
   xml:space="preserve"
   xmlns:inkscape="http://www.inkscape.org/namespaces/inkscape"
   xmlns:sodipodi="http://sodipodi.sourceforge.net/DTD/sodipodi-0.dtd"
   xmlns="http://www.w3.org/2000/svg"
   xmlns:svg="http://www.w3.org/2000/svg"><sodipodi:namedview
     id="namedview1"
     pagecolor="#ffffff"
     bordercolor="#000000"
     borderopacity="0.25"
     inkscape:showpageshadow="2"
     inkscape:pageopacity="0.0"
     inkscape:pagecheckerboard="0"
     inkscape:deskcolor="#d1d1d1"
     inkscape:document-units="mm"
     showgrid="false"><inkscape:grid
       id="grid1"
       units="mm"
       originx="-28.76455"
       originy="-139.258"
       spacingx="0.99999998"
       spacingy="1"
       empcolor="#0099e5"
       empopacity="0.30196078"
       color="#0099e5"
       opacity="0.14901961"
       empspacing="5"
       dotted="false"
       gridanglex="30"
       gridanglez="30"
       visible="false" /></sodipodi:namedview><defs
     id="defs1" /><g
     inkscape:label="Capa 1"
     inkscape:groupmode="layer"
     id="layer1"
     transform="translate(-28.76455,-139.25799)"><g
       id="g1"
       transform="matrix(0.35277778,0,0,0.35277778,20.195155,32.642621)"
       inkscape:label="5toCent"
       style="display:inline"><path
         fill-rule="nonzero"
         fill="#ffffff"
         fill-opacity="1"
         d="m 248.02734,331.09375 h -5.09375 V 302.875 c 1,0 2,0.10156 2.97266,-0.0234 1.35547,-0.17187 2.10547,0.36719 2.84766,1.4961 3.82812,5.83203 7.76171,11.60156 11.65625,17.39062 0.14062,0.21094 0.29296,0.41016 0.61718,0.5625 v -0.82812 c 0,-5.84766 0,-11.69532 0,-17.54297 0,-1.05078 0.004,-1.05078 1.08985,-1.05469 1.28906,0 2.57812,0 3.92968,0 v 28.26172 c -1.51171,0 -3.00781,0.0195 -4.5039,-0.0195 -0.19531,-0.004 -0.4336,-0.26953 -0.56641,-0.46875 -4.12109,-6.11719 -8.23047,-12.24219 -12.34375,-18.36719 -0.14062,-0.21094 -0.29297,-0.42188 -0.60547,-0.59375 z m 0,0"
         id="path13" /><path
         fill-rule="nonzero"
         fill="#ffffff"
         fill-opacity="1"
         d="m 340.98047,331.14062 c -1.50391,0 -3.00391,0.0274 -4.4961,-0.0312 -0.24609,-0.0117 -0.53125,-0.38281 -0.71093,-0.64453 -2.96094,-4.39062 -5.90625,-8.78906 -8.85547,-13.1875 -1.1875,-1.76953 -2.375,-3.53906 -3.57031,-5.30859 -0.0937,-0.13672 -0.21094,-0.25781 -0.42579,-0.51172 -0.0195,0.41406 -0.0391,0.66406 -0.0391,0.91406 -0.004,5.95313 -0.0117,11.90625 0.0117,17.85547 0.004,0.71094 -0.16797,0.96875 -0.91797,0.9375 -1.35937,-0.0625 -2.72656,-0.0195 -4.1289,-0.0195 V 302.875 c 1.08593,0 2.16015,0.0898 3.21875,-0.0234 1.17187,-0.12109 1.82812,0.32031 2.47656,1.29688 3.88672,5.89062 7.84765,11.73047 11.78906,17.58593 0.13672,0.20313 0.28125,0.39844 0.58984,0.53516 v -19.3125 h 5.0586 z m 0,0"
         id="path14" /><path
         fill-rule="nonzero"
         fill="#ffffff"
         fill-opacity="1"
         d="m 116.14844,322.67969 v -19.38672 h 5 v 28.23047 c -0.85547,0 -1.75391,-0.11328 -2.61719,0.0234 -1.63672,0.25391 -2.51172,-0.47265 -3.38281,-1.8125 -3.79297,-5.82812 -7.71485,-11.57031 -11.59375,-17.34375 -0.0977,-0.14843 -0.21875,-0.27734 -0.48047,-0.60546 v 19.6875 h -5.058595 v -28.23829 c 1.527344,0 3.027345,-0.0195 4.519535,0.0195 0.19922,0.004 0.44531,0.2539 0.57812,0.44921 3.03516,4.4961 6.0625,9 9.08985,13.50391 1.24609,1.84766 2.48828,3.69922 3.73437,5.55078 0.0703,-0.0234 0.14063,-0.0508 0.21094,-0.0781"
         id="path15" /><path
         fill-rule="nonzero"
         fill="#ffffff"
         fill-opacity="1"
         d="m 59.035156,303.27344 h 5.046875 c 0.01563,0.36328 0.04297,0.69531 0.04297,1.02734 0.0039,5.24219 -0.0039,10.48438 0.01172,15.72266 0.0039,0.78906 0.04297,1.58593 0.175781,2.35937 0.441406,2.54688 1.996094,4.14844 4.449219,4.8125 1.703125,0.46094 3.453125,0.4336 5.152343,-0.12109 2.472657,-0.8086 4.070313,-2.89844 4.140626,-5.59375 0.07812,-2.97266 0.03516,-5.95313 0.03906,-8.92969 0.0039,-2.78906 0,-5.58203 0,-8.375 v -0.89844 h 5.066406 c 0.01563,0.25391 0.04297,0.50391 0.04297,0.75391 -0.0078,5.79297 0.05469,11.58984 -0.05078,17.38281 -0.08984,5.08203 -2.992188,9.62891 -9.203125,10.48828 -1.925781,0.26563 -3.820313,0.26172 -5.734375,-0.0195 -5.238282,-0.76953 -8.824219,-4.48828 -9.066406,-9.78906 -0.191407,-4.28516 -0.08984,-8.58203 -0.113282,-12.875 -0.0078,-1.94531 0,-3.89453 0,-5.94531"
         id="path16" /><path
         fill-rule="nonzero"
         fill="#ffffff"
         fill-opacity="1"
         d="m 310.42187,314.91797 v 4.11719 c -0.30859,0.0156 -0.60937,0.0508 -0.91406,0.0508 -2.8789,0.004 -5.7539,0.0195 -8.6289,-0.0117 -0.66016,-0.008 -0.85938,0.1914 -0.84766,0.85156 0.0391,2.07813 0.0391,4.16016 0,6.24219 -0.0117,0.64844 0.21094,0.79687 0.81641,0.79297 4.0664,-0.0234 8.1289,-0.0117 12.19531,-0.0117 h 0.99219 v 4.1289 H 294.98828 V 302.9375 h 19.04688 v 4.11719 h -0.94141 c -4.03906,0 -8.07813,0.0156 -12.11719,-0.0117 -0.69531,-0.004 -0.97265,0.14062 -0.94922,0.90625 0.0547,2.02734 0.043,4.05859 0,6.08594 -0.0117,0.68359 0.16797,0.90625 0.87891,0.89843 2.85156,-0.0391 5.70312,-0.0156 8.55078,-0.0156 z m 0,0"
         id="path17" /><path
         fill-rule="nonzero"
         fill="#ffffff"
         fill-opacity="1"
         d="m 235.52344,314.91797 v 4.15234 h -10.39063 v 3.90625 c 0,1.05469 0.0391,2.10938 -0.0156,3.16016 -0.0352,0.67969 0.22265,0.82812 0.85937,0.82422 4.0625,-0.0234 8.125,-0.0117 12.1875,-0.0117 h 0.98438 v 4.13672 h -19.05078 v -28.14453 h 19.03906 v 4.09375 h -13.9375 c -0.0273,0.32812 -0.0664,0.55468 -0.0664,0.78125 -0.004,2.10546 0.0234,4.21484 -0.0156,6.32031 -0.0156,0.64453 0.20703,0.79687 0.8125,0.79297 2.875,-0.0274 5.75,-0.0117 8.625,-0.0117 z m 0,0"
         id="path18" /><path
         fill-rule="nonzero"
         fill="#ffffff"
         fill-opacity="1"
         d="m 215.59375,309.8125 c -0.5,-0.33984 -0.86719,-0.62891 -1.26953,-0.85547 -3.84375,-2.19531 -7.92578,-2.69141 -12.12891,-1.40234 -4.26172,1.30468 -6.76172,5.42187 -6.39453,10.13672 0.44922,5.70703 4.13281,9.23046 9.89063,9.43359 3.6875,0.12891 7.13281,-0.60156 10.16406,-3.05859 0.0352,0.28906 0.0742,0.47656 0.0781,0.66796 0.008,0.78907 -0.10937,1.60157 0.0273,2.36719 0.27343,1.54688 -0.53907,2.26953 -1.78516,2.88281 -2.91797,1.44922 -6.02344,1.85938 -9.22266,1.7461 -2.55859,-0.0899 -5.01953,-0.64453 -7.27734,-1.90235 -4.11719,-2.29296 -6.28516,-5.88671 -6.88281,-10.47265 -0.3711,-2.85938 -0.15625,-5.6836 0.9414,-8.38281 2.02344,-4.96875 5.88282,-7.60938 11.0586,-8.48047 3.8164,-0.64844 7.49219,-0.14063 11.03125,1.46875 1.28906,0.58593 2.03906,1.30468 1.79687,2.84765 -0.14843,0.94141 -0.0273,1.92188 -0.0273,3.00391"
         id="path19" /><path
         fill-rule="nonzero"
         fill="#ffffff"
         fill-opacity="1"
         d="m 146.6875,303.28516 v 4.13281 h -8.46875 v 24.04297 h -5.08203 v -24 h -8.56641 v -4.17578 z m 0,0"
         id="path20" /><path
         fill-rule="nonzero"
         fill="#ffffff"
         fill-opacity="1"
         d="m 269.48437,307.05469 v -4.11328 h 22.10547 V 307 c -0.26562,0.0195 -0.54297,0.0508 -0.82031,0.0547 -2.24219,0.004 -4.48437,0.0312 -6.72656,-0.0156 -0.7461,-0.0156 -0.98047,0.17969 -0.98047,0.95313 0.0312,7.375 0.0195,14.75 0.0195,22.125 v 0.97656 h -5.04297 c -0.0195,-0.34375 -0.0508,-0.67188 -0.0508,-1 -0.004,-7.35156 -0.0156,-14.69531 0.0156,-22.04297 0,-0.79687 -0.19922,-1.03906 -1.01172,-1.01562 -2.1875,0.0586 -4.37891,0.0195 -6.56641,0.0195 z m 0,0"
         id="path21" /><path
         fill-rule="nonzero"
         fill="#ffffff"
         fill-opacity="1"
         d="m 92.972656,331.49219 h -4.953125 v -28.20703 h 4.953125 z m 0,0"
         id="path22" /><path
         fill-rule="nonzero"
         fill="#ffffff"
         fill-opacity="1"
         d="m 407.66406,331.08984 h -4.99609 v -28.14062 h 4.99609 z m 0,0"
         id="path23" /><path
         fill-rule="nonzero"
         fill="#ffffff"
         fill-opacity="1"
         d="m 302.23828,341.56641 c 0.70703,1.42578 1.37109,2.67187 1.9375,3.96093 0.27344,0.61328 0.65234,0.85938 1.28516,0.9336 1.39843,0.16797 2.78906,0.39062 4.21875,0.59375 -1.03907,1.07812 -1.98828,2.12109 -3.00782,3.09375 -0.46875,0.44922 -0.63671,0.84765 -0.49609,1.5039 0.29688,1.37891 0.48438,2.78125 0.74609,4.34766 -1.41406,-0.74219 -2.67968,-1.375 -3.91406,-2.07031 -0.53906,-0.30078 -0.97265,-0.32422 -1.52734,-0.0117 -1.23047,0.70312 -2.5,1.33203 -3.92969,2.08203 0.23828,-1.42969 0.38672,-2.71484 0.67969,-3.96875 0.21094,-0.88672 0.0625,-1.48828 -0.65235,-2.11328 -0.98046,-0.84766 -1.82421,-1.85156 -2.78125,-2.85156 1.53907,-0.23438 3.04297,-0.4336 4.53125,-0.70313 0.29688,-0.0547 0.65625,-0.31641 0.79688,-0.57812 0.71484,-1.33594 1.36328,-2.70313 2.11328,-4.21875"
         id="path25" /><path
         fill-rule="nonzero"
         fill="#ffffff"
         fill-opacity="1"
         d="m 281.54297,356.00781 c 0.28515,-1.66015 0.51953,-3.10547 0.79297,-4.54687 0.0937,-0.48047 -0.004,-0.80469 -0.36719,-1.16407 -1.04688,-1.03515 -2.02734,-2.13281 -3.06641,-3.23828 0.87891,-0.13672 1.83985,-0.40234 2.8086,-0.41015 1.64843,-0.0117 2.65234,-0.69141 3.16797,-2.27344 0.29296,-0.89063 0.82031,-1.70313 1.24609,-2.55078 0.008,-0.0234 0.0391,-0.0352 0.13672,-0.1211 0.11719,0.19532 0.23828,0.3711 0.33203,0.5625 0.5625,1.12891 1.13281,2.25782 1.67187,3.39844 0.20704,0.4375 0.44141,0.6875 0.97266,0.75 1.46094,0.17188 2.91016,0.42969 4.36328,0.65625 0.0156,0.004 0.0274,0.043 0.0312,0.0547 -0.83203,0.86328 -1.58984,1.80859 -2.50781,2.5625 -0.92188,0.75781 -1.12891,1.54687 -0.82813,2.66797 0.30079,1.125 0.41016,2.30859 0.63282,3.64062 -1.41797,-0.74218 -2.6875,-1.37109 -3.91797,-2.0664 -0.54688,-0.3086 -0.97656,-0.32032 -1.52735,-0.004 -1.23046,0.69922 -2.5,1.32422 -3.9414,2.08203"
         id="path26" /><path
         fill-rule="nonzero"
         fill="#ffffff"
         fill-opacity="1"
         d="m 246.85937,347.05859 c 1.5,-0.22656 2.98438,-0.42187 4.44922,-0.69531 0.32032,-0.0586 0.70313,-0.33594 0.85547,-0.61719 0.71094,-1.32031 1.34766,-2.67187 2.09375,-4.17968 0.48438,0.97656 1.00781,1.79687 1.3125,2.6914 0.54297,1.59766 1.48438,2.44141 3.25391,2.39844 0.92969,-0.0234 1.86719,0.25391 2.92578,0.41406 -0.16406,0.21094 -0.26563,0.375 -0.39844,0.50391 -0.9375,0.92578 -1.87109,1.85156 -2.82422,2.75781 -0.33203,0.31641 -0.46093,0.60156 -0.35547,1.10156 0.29688,1.45703 0.50391,2.9336 0.77735,4.57032 -1.41797,-0.74219 -2.70313,-1.38672 -3.95703,-2.09766 -0.51953,-0.29297 -0.92578,-0.30078 -1.45313,-0.004 -1.2539,0.71094 -2.54687,1.35157 -3.96875,2.09375 0.27735,-1.64062 0.5586,-3.125 0.75781,-4.62109 0.043,-0.31641 -0.11328,-0.75781 -0.33593,-1.00391 -0.9961,-1.10937 -2.04688,-2.17187 -3.13282,-3.3125"
         id="path27" /><path
         fill-rule="nonzero"
         fill="#ffffff"
         fill-opacity="1"
         d="m 238.26953,341.56641 c 0.74609,1.5039 1.38281,2.85546 2.08984,4.16796 0.15625,0.28516 0.53125,0.57032 0.84766,0.62891 1.47266,0.27344 2.95703,0.46875 4.62109,0.71875 -0.30468,0.31641 -0.51953,0.55469 -0.74609,0.77734 -0.84766,0.82813 -1.73047,1.625 -2.53125,2.4961 -0.23828,0.2539 -0.38672,0.73437 -0.33984,1.08203 0.1875,1.45312 0.46875,2.89453 0.75,4.55469 -0.77344,-0.40235 -1.37891,-0.71875 -1.99219,-1.03125 -0.89063,-0.45313 -1.78516,-1.2461 -2.67578,-1.25 -0.89453,-0.004 -1.79297,0.78125 -2.6836,1.22656 -0.6289,0.31641 -1.25,0.64844 -2.02734,1.05469 0.27344,-1.64453 0.49219,-3.13672 0.78516,-4.61328 0.0898,-0.46094 -0.043,-0.72266 -0.33985,-1.03125 -1.03906,-1.07422 -2.05078,-2.17579 -3.09765,-3.29688 1.19922,-0.17969 2.47265,-0.44141 3.76172,-0.53906 0.93359,-0.0703 1.4414,-0.44531 1.79687,-1.30469 0.48438,-1.19141 1.12109,-2.31641 1.78125,-3.64062"
         id="path28" /><path
         fill-rule="nonzero"
         fill="#ffffff"
         fill-opacity="1"
         d="m 274.94531,356.00391 c -1.35937,-0.71485 -2.58984,-1.30469 -3.75781,-1.9961 -0.67578,-0.39844 -1.21094,-0.38672 -1.88281,0.0117 -1.15235,0.67578 -2.35938,1.25781 -3.72657,1.97266 0.16797,-1.04688 0.1836,-1.97657 0.47266,-2.8125 0.60547,-1.75391 0.18359,-3.03907 -1.33203,-4.10547 -0.71875,-0.50391 -1.28516,-1.22266 -2.05469,-1.98047 1.1836,-0.17969 2.19922,-0.44922 3.22266,-0.46484 1.49609,-0.0234 2.41406,-0.60547 2.90234,-2.05079 0.33203,-0.98828 0.90625,-1.89453 1.44531,-2.97656 0.24219,0.45313 0.4375,0.80078 0.61719,1.15625 0.50391,1.01563 0.97266,2.04688 1.51953,3.03516 0.14844,0.26562 0.50782,0.51953 0.8086,0.57031 1.48437,0.27344 2.98828,0.47266 4.46875,0.69531 -0.91407,0.96875 -1.74219,1.94922 -2.6836,2.80469 -0.69922,0.63281 -0.94922,1.23438 -0.71093,2.17578 0.30859,1.23828 0.44531,2.51563 0.6914,3.96485"
         id="path29" /><path
         fill-rule="nonzero"
         fill="#ffffff"
         fill-opacity="1"
         d="m 167.92578,356.48437 h -2.29297 v -6.20312 h -6.79297 v 6.16406 h -2.40234 v -14.29687 h 2.34375 v 6.05859 h 6.80078 v -6.07031 h 2.34375 z m 0,0"
         id="path30" /><path
         fill-rule="nonzero"
         fill="#ffffff"
         fill-opacity="1"
         d="m 211.91797,342.125 v 1.84375 h -5.5625 v 4.26953 h 4.92187 v 1.92188 h -4.91797 v 4.43359 h 5.54297 v 1.85547 h -7.91406 V 342.125 Z m 0,0"
         id="path31" /><path
         fill-rule="nonzero"
         fill="#ffffff"
         fill-opacity="1"
         d="m 196.16406,356.48437 h -2.37109 v -12.46875 h -3.88672 v -1.85937 h 10.0625 v 1.83203 h -3.80469 z m 0,0"
         id="path32" /><path
         fill-rule="nonzero"
         fill="#ffffff"
         fill-opacity="1"
         d="m 216.42578,356.44141 v -14.28907 h 2.35156 v 12.44532 h 4.85547 v 1.84375 z m 0,0"
         id="path33" /><path
         fill-rule="nonzero"
         fill="#ffffff"
         fill-opacity="1"
         d="m 124.57422,307.46094 h 8.5625 v 24 h 5.08203 v -24.04297 h 8.46875 v -4.13281 h -22.11328 z m 0,0"
         id="path34" /><path
         fill-rule="nonzero"
         fill="#ffffff"
         fill-opacity="1"
         d="m 183.86719,351.54687 c -0.77735,2.00391 -2.54688,3.14454 -4.76953,3.08204 -2.80469,-0.082 -4.72266,-2.25782 -4.73047,-5.35547 -0.004,-3.77735 2.96484,-6.1211 6.47656,-5.06641 0.61328,0.18359 1.21875,0.52344 1.71484,0.93359 1.65625,1.36719 2.19141,4.14063 1.3086,6.40625 m -4.54297,-9.70312 c -4.19922,0 -7.42188,3.21875 -7.42578,7.41406 0,4.24219 3.26953,7.52735 7.44922,7.48047 4.21484,-0.0469 7.37109,-3.24219 7.375,-7.46484 0,-4.21875 -3.19532,-7.42969 -7.39844,-7.42969"
         id="path35" /><path
         fill-rule="nonzero"
         fill="#ffffff"
         fill-opacity="1"
         d="m 203.98828,356.44922 h 7.91406 v -1.85547 h -5.54297 v -4.4375 h 4.91797 v -1.91797 h -4.92187 v -4.26953 h 5.5625 V 342.125 h -7.92969 z m 0,0"
         id="path36" /><path
         fill-rule="nonzero"
         fill="#ffffff"
         fill-opacity="1"
         d="m 165.58203,348.20703 h -6.80078 v -6.05859 h -2.34375 v 14.29687 h 2.40234 v -6.16406 h 6.79297 v 6.20312 h 2.29297 v -14.34375 h -2.34375 z m 0,0"
         id="path37" /><path
         fill-rule="nonzero"
         fill="#ffffff"
         fill-opacity="1"
         d="m 161.89844,327.45703 c -5.80469,-0.008 -9.77344,-4.23047 -9.76563,-10.39453 0.008,-5.60156 4.26563,-9.82422 9.90235,-9.82031 5.69921,0.008 9.83984,4.2539 9.85937,10.11328 0.0195,5.92578 -4.12109,10.10937 -9.99609,10.10156 m 12.19531,-19.19922 c -3.10547,-3.95703 -7.28906,-5.63672 -12.23828,-5.64062 -8.56641,-0.0117 -14.80469,6.15234 -14.87891,14.82422 0.0195,0.34375 0.0508,0.8164 0.0859,1.28906 0.28906,4.02734 1.88281,7.43359 5.03125,10 3.23047,2.64062 7.00781,3.59375 11.14453,3.3125 3.11328,-0.21094 5.92578,-1.19531 8.39844,-3.09766 6.71875,-5.18359 6.71875,-15.25781 2.45703,-20.6875"
         id="path38" /><path
         fill-rule="nonzero"
         fill="#ffffff"
         fill-opacity="1"
         d="m 189.90625,344.01562 h 3.88672 v 12.46875 h 2.37109 v -12.49609 h 3.80469 v -1.83203 h -10.0625 z m 0,0"
         id="path39" /><path
         fill-rule="nonzero"
         fill="#ffffff"
         fill-opacity="1"
         d="m 240.35937,345.73437 c -0.70703,-1.3125 -1.34375,-2.66406 -2.08984,-4.16796 -0.66016,1.32421 -1.29297,2.44921 -1.78125,3.64062 -0.35547,0.85938 -0.86328,1.23438 -1.79687,1.30469 -1.28907,0.0976 -2.56641,0.35937 -3.76172,0.53906 1.05078,1.12109 2.05859,2.22656 3.09765,3.29688 0.29688,0.30859 0.42969,0.57031 0.33985,1.03125 -0.29297,1.47656 -0.51172,2.96875 -0.78516,4.61328 0.77734,-0.40235 1.39844,-0.73828 2.02734,-1.05469 0.89063,-0.44531 1.78907,-1.23047 2.67969,-1.22656 0.89844,0.004 1.78906,0.79687 2.67969,1.25 0.61328,0.3125 1.21875,0.6289 1.99219,1.03125 -0.28125,-1.66016 -0.5625,-3.10157 -0.75,-4.55469 -0.0469,-0.34766 0.10547,-0.82813 0.33984,-1.08203 0.80078,-0.8711 1.68359,-1.66797 2.53125,-2.4961 0.23047,-0.22265 0.44141,-0.46093 0.74609,-0.77734 -1.66406,-0.25 -3.14843,-0.44531 -4.62109,-0.71875 -0.31641,-0.0586 -0.69141,-0.34375 -0.84766,-0.62891"
         id="path40" /><path
         fill-rule="nonzero"
         fill="#ffffff"
         fill-opacity="1"
         d="m 272.37109,345.79297 c -0.54687,-0.98828 -1.01562,-2.01953 -1.51953,-3.03516 -0.17969,-0.35547 -0.375,-0.70312 -0.61719,-1.15625 -0.53906,1.08203 -1.10937,1.98828 -1.44531,2.97656 -0.48828,1.44532 -1.40625,2.02735 -2.90234,2.05079 -1.02344,0.0156 -2.03906,0.28515 -3.22656,0.46484 0.77343,0.75781 1.33984,1.47656 2.05859,1.98047 1.51562,1.0664 1.9375,2.35156 1.33203,4.10547 -0.28906,0.83593 -0.30469,1.76562 -0.46875,2.8125 1.36328,-0.71485 2.57031,-1.29688 3.72266,-1.97266 0.67187,-0.39844 1.20703,-0.41016 1.88281,-0.0117 1.16797,0.69141 2.39844,1.28125 3.75781,1.9961 -0.24609,-1.44922 -0.38281,-2.72657 -0.6914,-3.96485 -0.23829,-0.9414 0.0117,-1.54297 0.71093,-2.17578 0.94141,-0.85547 1.76953,-1.83594 2.6836,-2.80469 -1.48047,-0.22265 -2.98047,-0.42578 -4.46875,-0.69531 -0.30078,-0.0508 -0.66016,-0.30469 -0.8086,-0.57031"
         id="path41" /><path
         fill-rule="nonzero"
         fill="#ffffff"
         fill-opacity="1"
         d="m 215.93359,324.73437 c 0,-0.1914 -0.043,-0.3789 -0.0781,-0.66796 -3.03125,2.45703 -6.47656,3.1875 -10.16406,3.05859 -5.75782,-0.20313 -9.44141,-3.72656 -9.88672,-9.43359 -0.3711,-4.71485 2.1289,-8.83204 6.39062,-10.14063 4.20313,-1.28516 8.28516,-0.78516 12.125,1.40625 0.40625,0.23047 0.77344,0.51953 1.27344,0.85938 0,-1.08594 -0.12109,-2.06641 0.0273,-3.00782 0.24219,-1.54297 -0.50781,-2.26172 -1.79687,-2.84765 -3.53906,-1.60938 -7.21485,-2.11719 -11.03125,-1.47266 -5.17578,0.875 -9.03516,3.51563 -11.0586,8.48438 -1.09765,2.69921 -1.3125,5.52343 -0.9414,8.38281 0.59765,4.58594 2.76562,8.17969 6.88281,10.47265 2.25781,1.25782 4.71875,1.8125 7.27734,1.90235 3.19922,0.11328 6.30469,-0.29688 9.22657,-1.7461 1.24218,-0.61718 2.05468,-1.33203 1.78125,-2.88281 -0.13672,-0.76562 -0.0195,-1.57422 -0.0273,-2.36719"
         id="path42" /><path
         fill-rule="nonzero"
         fill="#ffffff"
         fill-opacity="1"
         d="m 218.77734,342.15234 h -2.35156 v 14.28907 h 7.20703 v -1.84375 h -4.85547 z m 0,0"
         id="path43" /><path
         fill-rule="nonzero"
         fill="#ffffff"
         fill-opacity="1"
         d="m 255.57031,344.26172 c -0.30469,-0.89844 -0.82812,-1.71875 -1.3125,-2.69531 -0.74609,1.5039 -1.38281,2.85937 -2.09375,4.17968 -0.15234,0.28125 -0.53515,0.5586 -0.85547,0.61719 -1.46484,0.27344 -2.94922,0.46875 -4.44922,0.69531 1.08594,1.13672 2.13672,2.20313 3.13282,3.3125 0.22265,0.2461 0.3789,0.6875 0.33593,1.00782 -0.19921,1.49218 -0.48046,2.97656 -0.75781,4.62109 1.42188,-0.74609 2.71485,-1.38672 3.96875,-2.09766 0.52735,-0.29687 0.9336,-0.28906 1.45313,0.004 1.2539,0.70703 2.53906,1.35547 3.95703,2.09766 -0.27344,-1.63672 -0.48047,-3.11329 -0.77735,-4.57032 -0.10546,-0.5 0.0195,-0.78515 0.35157,-1.10156 0.95703,-0.90625 1.89062,-1.83203 2.82812,-2.75781 0.13281,-0.13281 0.23438,-0.29297 0.39844,-0.50391 -1.05859,-0.16015 -1.99609,-0.4375 -2.92578,-0.41406 -1.76953,0.043 -2.71094,-0.80078 -3.25391,-2.39453"
         id="path44" /><path
         fill-rule="nonzero"
         fill="#ffffff"
         fill-opacity="1"
         d="m 248.03125,311.6875 c 0.30859,0.17187 0.46094,0.37891 0.60156,0.59375 4.11328,6.125 8.22266,12.25 12.34375,18.36719 0.13281,0.19922 0.3711,0.46093 0.56641,0.46875 1.49609,0.0391 2.99219,0.0195 4.5039,0.0195 V 302.875 c -1.35156,0 -2.64062,0 -3.92968,0 -1.08594,0 -1.08594,0.004 -1.08594,1.05469 -0.004,5.84765 0,11.69531 0,17.54297 v 0.82812 c -0.32813,-0.15625 -0.48047,-0.35156 -0.62109,-0.55859 -3.89454,-5.79297 -7.82422,-11.5625 -11.65625,-17.39453 -0.74219,-1.12891 -1.49219,-1.66797 -2.84766,-1.4961 -0.97266,0.125 -1.97266,0.0234 -2.97266,0.0234 v 28.21875 h 5.09766 z m 0,0"
         id="path45" /><path
         fill-rule="nonzero"
         fill="#ffffff"
         fill-opacity="1"
         d="M 83.160156,303.27734 H 78.09375 v 0.89844 c 0,2.79297 0.0039,5.58203 0,8.375 -0.0039,2.97656 0.03906,5.95703 -0.03906,8.92969 -0.07031,2.69531 -1.667969,4.78515 -4.140626,5.58984 -1.699218,0.55469 -3.449218,0.58594 -5.152343,0.125 -2.453125,-0.66406 -4.007813,-2.26562 -4.449219,-4.8125 -0.132812,-0.77344 -0.175781,-1.57031 -0.175781,-2.35547 -0.01563,-5.24218 -0.0078,-10.48437 -0.01172,-15.72656 0,-0.33203 -0.02734,-0.66406 -0.04297,-1.02734 h -5.046875 c 0,2.05078 -0.0078,4 0,5.94531 0.02344,4.29297 -0.07813,8.58984 0.113282,12.875 0.238281,5.30078 3.828124,9.01953 9.066406,9.78906 1.914062,0.28125 3.808594,0.28516 5.734375,0.0195 6.210937,-0.85937 9.113281,-5.40625 9.203125,-10.48828 0.105468,-5.79297 0.04297,-11.58984 0.05078,-17.38281 0,-0.25 -0.02734,-0.50391 -0.04297,-0.75391"
         id="path46" /><path
         fill-rule="nonzero"
         fill="#ffffff"
         fill-opacity="1"
         d="m 239.14844,326.94922 h -0.98438 c -4.0625,0 -8.125,-0.0117 -12.1875,0.0117 -0.63672,0.004 -0.89453,-0.14453 -0.85937,-0.82422 0.0547,-1.05078 0.0117,-2.10938 0.0117,-3.16016 v -3.90625 h 10.39453 v -4.15234 h -0.96875 c -2.875,0 -5.75,-0.0156 -8.625,0.0117 -0.60547,0.004 -0.82813,-0.14844 -0.8125,-0.79297 0.0391,-2.10547 0.0117,-4.21485 0.0156,-6.32031 0,-0.22657 0.0391,-0.45313 0.0703,-0.78125 h 13.9336 v -4.09375 H 220.0937 v 28.14453 h 19.05469 z m 0,0"
         id="path47" /><path
         fill-rule="nonzero"
         fill="#ffffff"
         fill-opacity="1"
         d="m 88.019531,331.49219 h 4.953125 v -28.20703 h -4.953125 z m 0,0"
         id="path48" /><path
         fill-rule="nonzero"
         fill="#ffffff"
         fill-opacity="1"
         d="m 116.14844,312.98437 v 9.69532 c -0.0703,0.0273 -0.14063,0.0547 -0.21094,0.0781 -1.24609,-1.85156 -2.48828,-3.69922 -3.73437,-5.55078 -3.02735,-4.50391 -6.05469,-9.00781 -9.08985,-13.50391 -0.13281,-0.19531 -0.3789,-0.44531 -0.57812,-0.44921 -1.49219,-0.0391 -2.992191,-0.0195 -4.519535,-0.0195 v 28.23829 h 5.058595 v -19.6875 c 0.26172,0.32812 0.38281,0.45703 0.48047,0.60546 3.8789,5.77344 7.80078,11.51563 11.59375,17.34375 0.87109,1.33985 1.74609,2.06641 3.38281,1.8125 0.86328,-0.13671 1.76172,-0.0234 2.61719,-0.0234 v -28.23047 h -5 z m 0,0"
         id="path49" /><path
         fill-rule="nonzero"
         fill="#ffffff"
         fill-opacity="1"
         d="m 294.98828,331.07812 h 19.04688 v -4.1289 h -0.99219 c -4.06641,0 -8.12891,-0.0117 -12.19531,0.0117 -0.60547,0.004 -0.83204,-0.14453 -0.81641,-0.79297 0.0391,-2.08203 0.0352,-4.16406 0,-6.24219 -0.0117,-0.66016 0.1875,-0.85937 0.84766,-0.85156 2.875,0.0312 5.7539,0.0156 8.6289,0.0117 0.30078,0 0.60547,-0.0352 0.91797,-0.0508 v -4.11719 h -0.96875 c -2.84766,0 -5.69922,-0.0234 -8.55078,0.0156 -0.71484,0.0117 -0.89063,-0.21484 -0.875,-0.89843 0.043,-2.02735 0.0508,-4.0586 -0.004,-6.08594 -0.0195,-0.76563 0.25782,-0.91406 0.94922,-0.90625 4.03906,0.0273 8.07813,0.0117 12.11719,0.0117 h 0.94531 v -4.11719 h -19.05078 z m 0,0"
         id="path50" /><path
         fill-rule="nonzero"
         fill="#ffffff"
         fill-opacity="1"
         d="m 283.08203,330.11719 c 0,-7.375 0.0117,-14.75 -0.0195,-22.125 0,-0.77344 0.23437,-0.96875 0.98047,-0.95313 2.24219,0.0469 4.48437,0.0195 6.72656,0.0156 0.27734,-0.004 0.55469,-0.0352 0.82031,-0.0547 v -4.05859 H 269.4844 v 4.11328 h 0.94141 c 2.1875,0 4.37891,0.0391 6.56641,-0.0195 0.8164,-0.0234 1.01172,0.21875 1.01172,1.01562 -0.0312,7.34766 -0.0195,14.69141 -0.0195,22.04297 0,0.32812 0.0352,0.65625 0.0547,1 h 5.04297 z m 0,0"
         id="path51" /><path
         fill-rule="nonzero"
         fill="#ffffff"
         fill-opacity="1"
         d="m 354.38281,320.33594 c 1.52344,-4 3.00781,-7.89453 4.49219,-11.78907 0.0703,0 0.13672,0 0.20703,0 1.48438,3.89454 2.96875,7.78907 4.49219,11.78907 z m 18.02344,9.875 c -1.11328,-2.78907 -2.23438,-5.57032 -3.34375,-8.35547 -2.42188,-6.0625 -4.85547,-12.1211 -7.25,-18.19141 -0.24609,-0.6289 -0.57031,-0.83203 -1.21875,-0.80078 -1.02734,0.0508 -2.0625,0.0664 -3.08594,-0.004 -0.75781,-0.0547 -1.10156,0.23047 -1.375,0.92188 -2.1875,5.53516 -4.41797,11.05078 -6.63281,16.57422 -1.42188,3.54297 -2.83594,7.08594 -4.31641,10.78906 1.60547,0 3.07813,-0.0234 4.54688,0.0156 0.51562,0.0117 0.75,-0.19141 0.92187,-0.64454 0.66407,-1.74609 1.375,-3.47265 2.02344,-5.22656 0.19922,-0.54297 0.49219,-0.69922 1.05078,-0.69531 3.50781,0.0234 7.01563,0.0234 10.52344,0 0.57031,-0.004 0.84375,0.18359 1.04297,0.71094 0.66015,1.75 1.36328,3.48047 2.07031,5.21093 0.0977,0.23829 0.33203,0.58985 0.50781,0.59375 1.59766,0.0508 3.19532,0.0312 4.8711,0.0312 -0.14063,-0.39843 -0.22657,-0.66796 -0.33594,-0.92968"
         id="path52" /><path
         fill-rule="nonzero"
         fill="#ffffff"
         fill-opacity="1"
         d="m 335.92187,322.26953 c -0.30859,-0.13672 -0.45312,-0.33203 -0.58984,-0.53516 -3.9375,-5.85546 -7.90234,-11.69531 -11.79297,-17.58593 -0.64062,-0.97657 -1.30078,-1.41797 -2.47265,-1.29688 -1.05469,0.11328 -2.13282,0.0234 -3.21875,0.0234 v 28.26953 c 1.40234,0 2.76953,-0.043 4.13281,0.0195 0.74609,0.0312 0.91797,-0.22656 0.91406,-0.9375 -0.0273,-5.94922 -0.0156,-11.90234 -0.0117,-17.85547 0,-0.25 0.0195,-0.5 0.0391,-0.91406 0.21485,0.25391 0.33594,0.375 0.42579,0.51172 1.1914,1.76953 2.38281,3.53906 3.57031,5.3125 2.94922,4.39453 5.89453,8.79297 8.85547,13.18359 0.17968,0.26172 0.46093,0.63282 0.71093,0.64453 1.4961,0.0586 2.99219,0.0312 4.4961,0.0312 v -28.18359 h -5.0586 z m 0,0"
         id="path53" /><path
         fill-rule="nonzero"
         fill="#ffffff"
         fill-opacity="1"
         d="m 289.23828,346.41406 c -0.53125,-0.0625 -0.76953,-0.3125 -0.97266,-0.75 -0.53906,-1.14062 -1.10937,-2.26953 -1.67187,-3.39844 -0.0937,-0.1914 -0.21484,-0.36718 -0.33203,-0.5625 -0.10156,0.0859 -0.12891,0.0977 -0.14063,0.1211 -0.42187,0.84765 -0.94922,1.66015 -1.24218,2.55078 -0.51563,1.58203 -1.51954,2.26172 -3.16797,2.27344 -0.96875,0.008 -1.92969,0.27343 -2.8086,0.41015 1.03907,1.10547 2.01953,2.20313 3.06641,3.23438 0.36328,0.36328 0.46094,0.6875 0.36719,1.16797 -0.27344,1.4414 -0.50782,2.88672 -0.79297,4.54687 1.4414,-0.75781 2.71094,-1.38281 3.9414,-2.08203 0.55079,-0.31641 0.98047,-0.30469 1.52735,0.004 1.23047,0.69531 2.5,1.32422 3.91797,2.0664 -0.22266,-1.33593 -0.33203,-2.51562 -0.63282,-3.64062 -0.30078,-1.1211 -0.0976,-1.91016 0.82813,-2.66797 0.91797,-0.75391 1.67578,-1.69922 2.50781,-2.56641 -0.004,-0.008 -0.0156,-0.0469 -0.0273,-0.0469 -1.45703,-0.23047 -2.90625,-0.48828 -4.36719,-0.66016"
         id="path54" /><path
         fill-rule="nonzero"
         fill="#ffffff"
         fill-opacity="1"
         d="m 309.67969,347.05469 c -1.42969,-0.20313 -2.82032,-0.42578 -4.21875,-0.58985 -0.63282,-0.0781 -1.01172,-0.32422 -1.28516,-0.9375 -0.56641,-1.28906 -1.23047,-2.53515 -1.9375,-3.96093 -0.75,1.51562 -1.40234,2.88281 -2.11328,4.21875 -0.14063,0.26562 -0.5,0.52343 -0.79688,0.57812 -1.49218,0.26953 -2.99218,0.47266 -4.53125,0.70313 0.95704,0.99609 1.80079,2.0039 2.78125,2.85156 0.71485,0.62109 0.86329,1.22656 0.65625,2.11328 -0.29296,1.25391 -0.44531,2.53906 -0.68359,3.96875 1.42969,-0.75 2.69922,-1.37891 3.93359,-2.08203 0.55079,-0.3125 0.98438,-0.28906 1.52344,0.0117 1.23438,0.6914 2.5,1.32812 3.91406,2.07031 -0.26171,-1.56641 -0.44921,-2.96875 -0.74609,-4.34766 -0.14062,-0.65625 0.0273,-1.05468 0.49609,-1.50781 1.01954,-0.96875 1.96875,-2.01172 3.00782,-3.08984"
         id="path55" /><path
         fill-rule="nonzero"
         fill="#ffffff"
         fill-opacity="1"
         d="m 389.61328,316.35937 c -1.39453,0.22657 -2.83594,0.15235 -4.25391,0.1875 -0.92578,0.0234 -1.84765,0.0312 -2.76953,-0.0156 -0.19531,-0.0117 -0.54297,-0.28125 -0.54297,-0.43359 -0.0351,-2.96875 -0.0273,-5.94141 -0.0273,-8.88282 2.63281,0 5.14844,-0.19531 7.61719,0.0508 2.53125,0.25782 3.80859,2.00391 3.8125,4.52735 0.004,2.42578 -1.36719,4.16797 -3.83594,4.5664 m 3.36719,3.75782 c 6.21094,-2.21875 6.47656,-9.28125 4.45703,-13.06641 -1.45313,-2.72656 -3.99609,-3.92187 -6.91797,-4.04687 -4.39844,-0.1836 -8.80859,-0.0937 -13.21875,-0.11719 -0.0977,0 -0.19922,0.043 -0.33984,0.0742 v 28.12109 h 5.09765 v -10.34766 c 1.6836,0 3.26563,0.0274 4.84375,-0.0117 0.5625,-0.0156 0.83985,0.19531 1.08985,0.67968 1.4414,2.78125 2.98047,5.51563 4.35547,8.33203 0.53906,1.10547 1.16015,1.57422 2.39843,1.4375 1.13672,-0.125 2.29688,-0.0273 3.59766,-0.0273 -1.95313,-3.69922 -3.82031,-7.23047 -5.71875,-10.82812 0.17578,-0.10157 0.25781,-0.16407 0.35547,-0.19922"
         id="path56" /><path
         fill-rule="nonzero"
         fill="#ffffff"
         fill-opacity="1"
         d="m 402.66797,331.08984 h 4.99609 v -28.14062 h -4.99609 z m 0,0"
         id="path58" /><path
         fill-rule="nonzero"
         fill="#ffffff"
         fill-opacity="1"
         d="m 428.54687,327.02344 c -6.18359,1.05468 -11.51171,-3.4336 -11.55468,-9.69532 -0.0234,-3.53906 1.07031,-6.57421 4.05859,-8.62109 3.35156,-2.29297 6.98828,-2.48437 10.57422,-0.64844 3.59766,1.83985 5.03125,5.06641 5.11328,8.52344 0,5.69531 -3.19531,9.58984 -8.19141,10.44141 m 13.19922,-12.17188 c -0.33984,-2.58594 -1.21093,-4.97265 -2.85547,-7.00781 -3.48437,-4.30859 -8.10546,-5.99219 -13.52734,-5.49609 -8.00391,0.73046 -13.29687,6.32421 -13.49219,14.24218 -0.13281,5.375 1.83594,9.78907 6.44532,12.78125 3.05078,1.98047 6.46093,2.61328 10.0664,2.29688 8.07813,-0.71875 13.26172,-6.47656 13.71875,-14.65235 -0.11719,-0.72265 -0.26172,-1.4414 -0.35547,-2.16406"
         id="path59" /><path
         fill-rule="nonzero"
         fill="#ffffff"
         fill-opacity="1"
         d="m 39.257812,323.83594 c -4.507812,-0.0547 -7.078124,-2.64063 -7.011718,-7.04297 0.07031,-4.20313 3.027344,-7.10547 7.195312,-7.0625 4.203125,0.0469 7.019532,3.05469 6.960938,7.4375 -0.05859,4.1914 -2.769532,6.72265 -7.144532,6.66797 m 15.472657,6.62109 c -0.570313,-2.19141 -1.152344,-4.37891 -1.703125,-6.57422 -0.07813,-0.30859 -0.121094,-0.71094 0.01172,-0.97265 1.140626,-2.25 1.546876,-4.63282 1.355469,-7.125 -0.324219,-4.14063 -1.972656,-7.61329 -5.265625,-10.21485 -2.453125,-1.9414 -5.285156,-2.89844 -8.390625,-3.1289 -3.777343,-0.27735 -7.34375,0.41796 -10.433593,2.64453 -4.972657,3.57812 -6.65625,8.59765 -5.800782,14.5 0.789063,5.42187 3.929688,9.0039 9.101563,10.8125 2.167969,0.7539 4.417969,0.98437 6.699219,0.98437 4.589843,0.008 9.179687,0.004 13.769531,0.004 H 54.9375 c -0.08203,-0.375 -0.136719,-0.65625 -0.207031,-0.92969"
         id="path60" /></g><path
       id="rect1"
       style="fill:#ffffff;fill-opacity:1;stroke:none;stroke-width:1.32373;stroke-linejoin:round;stroke-miterlimit:10"
       inkscape:label="ExSheraton"
       d="m 63.736678,163.99878 v 10.3327 H 141.6141 v -10.3327 z m 22.603272,2.127 h 1.070218 v 2.24947 c 0.12822,-0.13937 0.286915,-0.25124 0.476457,-0.33486 0.195117,-0.0892 0.412442,-0.13384 0.652157,-0.13384 0.317761,0 0.593716,0.0699 0.827856,0.20929 0.23414,0.13937 0.415417,0.34271 0.543636,0.6103 0.133795,0.26201 0.201022,0.58851 0.201022,0.97875 v 2.44171 h -1.12913 v -2.2996 c 0,-0.32334 -0.06402,-0.56594 -0.192237,-0.72761 -0.128219,-0.16167 -0.320787,-0.24236 -0.577226,-0.24236 -0.262013,0 -0.462661,0.0888 -0.60203,0.26717 -0.133794,0.17282 -0.200505,0.42132 -0.200505,0.74465 v 2.25775 H 86.33995 Z m 50.54885,0 h 1.07022 v 6.02082 h -1.07022 z m -53.542983,0.10852 c 0.34006,0 0.646677,0.05 0.919841,0.15038 0.273163,0.0948 0.501779,0.2373 0.685746,0.42684 0.189542,0.18397 0.328866,0.41259 0.418062,0.68575 l -1.044897,0.28422 c -0.02787,-0.12264 -0.0892,-0.22861 -0.183968,-0.31781 -0.09477,-0.0892 -0.212031,-0.15912 -0.3514,-0.20929 -0.133794,-0.0557 -0.275812,-0.0837 -0.426331,-0.0837 -0.167243,-0.006 -0.320551,0.0197 -0.45992,0.0754 -0.139369,0.0558 -0.250725,0.13644 -0.334346,0.24236 -0.08362,0.10593 -0.125574,0.22857 -0.125574,0.36794 0,0.15609 0.04734,0.28195 0.14211,0.37672 0.09477,0.0892 0.220111,0.1672 0.376204,0.2341 0.156094,0.0613 0.331983,0.12264 0.5271,0.18396 0.228565,0.0669 0.459875,0.1449 0.694014,0.2341 0.239715,0.0836 0.45704,0.19228 0.652157,0.32608 0.195117,0.12822 0.351119,0.29282 0.468189,0.49351 0.122644,0.20069 0.183968,0.45406 0.183968,0.76067 0,0.32334 -0.078,0.61597 -0.234095,0.87799 -0.150518,0.26201 -0.379134,0.47126 -0.685746,0.62735 -0.306612,0.15609 -0.691229,0.23409 -1.153935,0.23409 -0.379083,0 -0.724959,-0.0559 -1.037146,-0.16743 -0.306611,-0.11149 -0.559985,-0.27288 -0.760677,-0.48472 -0.200691,-0.21742 -0.331935,-0.474 -0.393257,-0.76947 l 1.045414,-0.29248 c 0.02787,0.15609 0.0892,0.2922 0.183968,0.40927 0.09477,0.11707 0.217418,0.20906 0.367936,0.27595 0.156094,0.0613 0.334677,0.092 0.535368,0.092 0.328911,0 0.574204,-0.0721 0.735872,-0.21704 0.161669,-0.15052 0.242363,-0.3318 0.242363,-0.54364 0,-0.16724 -0.05003,-0.30657 -0.150379,-0.41806 -0.100345,-0.1115 -0.24288,-0.20617 -0.426847,-0.28422 -0.178392,-0.078 -0.38712,-0.15335 -0.626835,-0.22583 -0.22299,-0.0669 -0.446219,-0.13951 -0.66921,-0.21755 -0.217415,-0.078 -0.41537,-0.17542 -0.593762,-0.29249 -0.172818,-0.11707 -0.312142,-0.26769 -0.418062,-0.45166 -0.100346,-0.18954 -0.150379,-0.42675 -0.150379,-0.71106 0,-0.35679 0.0866,-0.66019 0.259416,-0.91106 0.178392,-0.25086 0.420476,-0.44074 0.727087,-0.56896 0.306612,-0.12822 0.660568,-0.19223 1.061951,-0.19223 z m -15.954582,0.0584 h 4.113961 v 0.94516 h -2.985347 v 1.48829 h 2.232938 v 0.91157 h -2.232938 v 1.56373 h 2.985347 v 0.94516 h -4.113961 z m 51.017555,0 h 1.12862 v 2.41691 h 2.59209 v -2.41691 h 1.12913 v 5.85391 h -1.12913 v -2.49236 h -2.59209 v 2.49236 h -1.12862 z m -14.74277,0.50178 h 1.07901 v 1.17099 h 0.92811 v 0.94464 h -0.92811 v 1.69757 c 0,0.21742 0.0473,0.37073 0.14211,0.45992 0.0948,0.0892 0.21151,0.13654 0.35088,0.14211 0.14494,0.006 0.29017,-0.002 0.43512,-0.0248 v 0.91984 c -0.25644,0.0558 -0.50764,0.0724 -0.75293,0.0501 -0.23971,-0.0223 -0.45435,-0.0863 -0.64389,-0.19224 -0.18954,-0.1115 -0.33964,-0.27879 -0.45113,-0.50178 -0.10592,-0.22299 -0.15917,-0.50754 -0.15917,-0.85318 v -1.69757 h -0.59376 v -0.94464 h 0.59376 z m 25.77207,0 h 1.07901 v 1.17099 h 0.92811 v 0.94464 h -0.92811 v 1.69757 c 0,0.21742 0.0473,0.37073 0.14211,0.45992 0.0948,0.0892 0.21151,0.13654 0.35088,0.14211 0.14494,0.006 0.29017,-0.002 0.43512,-0.0248 v 0.91984 c -0.25644,0.0558 -0.50764,0.0724 -0.75293,0.0501 -0.23971,-0.0223 -0.45383,-0.0863 -0.64337,-0.19224 -0.18954,-0.1115 -0.34016,-0.27879 -0.45165,-0.50178 -0.10592,-0.22299 -0.15917,-0.50754 -0.15917,-0.85318 v -1.69757 h -0.59376 v -0.94464 h 0.59376 z m -36.525932,1.11208 c 0.401383,0 0.755339,0.0866 1.061951,0.25941 0.306612,0.17282 0.543825,0.41542 0.711068,0.72761 0.172817,0.30661 0.259415,0.66595 0.259415,1.07848 0,0.0613 -0.0059,0.13125 -0.01705,0.20929 -0.0056,0.0725 -0.01365,0.15048 -0.02481,0.2341 h -2.876827 c 0.0223,0.17839 0.07824,0.3317 0.167432,0.45992 0.09477,0.12264 0.208821,0.22001 0.342615,0.29249 0.139369,0.0669 0.295371,0.10025 0.468188,0.10025 0.206266,0 0.390236,-0.0414 0.551905,-0.12506 0.167242,-0.0836 0.287196,-0.19819 0.359668,-0.34313 l 0.945161,0.28422 c -0.167242,0.35679 -0.415229,0.63274 -0.74414,0.82786 -0.328911,0.19511 -0.708142,0.293 -1.137398,0.293 -0.418108,0 -0.786048,-0.092 -1.103809,-0.27595 -0.317761,-0.18397 -0.565748,-0.44055 -0.744141,-0.76946 -0.172817,-0.32891 -0.259415,-0.70814 -0.259415,-1.1374 0,-0.41253 0.0866,-0.77726 0.259415,-1.09502 0.178393,-0.31776 0.420476,-0.56627 0.727088,-0.74466 0.306612,-0.18397 0.657874,-0.27595 1.053682,-0.27595 z m 7.793842,0 c 0.55747,0 0.97545,0.13984 1.25418,0.41858 0.28432,0.27316 0.42634,0.6352 0.42634,1.08675 v 2.73472 h -0.98651 l -0.0837,-0.51056 c -0.13937,0.17281 -0.29807,0.30944 -0.47646,0.40979 -0.17282,0.10034 -0.40734,0.15089 -0.7028,0.15089 -0.278738,0 -0.524031,-0.0473 -0.735872,-0.14211 -0.206266,-0.10034 -0.367655,-0.23697 -0.484725,-0.40979 -0.11707,-0.17839 -0.1757,-0.38764 -0.1757,-0.62735 0,-0.35121 0.12534,-0.64115 0.376204,-0.86972 0.256439,-0.23414 0.641057,-0.38154 1.153933,-0.44286 l 1.04542,-0.11731 v -0.29249 c 0,-0.11707 -0.0527,-0.22573 -0.15865,-0.32608 -0.10592,-0.10034 -0.27321,-0.15089 -0.50178,-0.15089 -0.20069,0 -0.37658,0.0506 -0.5271,0.15089 -0.144942,0.0948 -0.242314,0.23949 -0.292487,0.4346 l -0.91984,-0.33434 c 0.111495,-0.37351 0.323433,-0.66076 0.63562,-0.86145 0.312187,-0.20069 0.696807,-0.30127 1.153937,-0.30127 z m 7.65121,0 c 0.40138,0 0.76394,0.0893 1.08727,0.26768 0.32334,0.17282 0.57941,0.42081 0.76895,0.74414 0.18954,0.31776 0.28473,0.6943 0.28473,1.12913 0,0.44041 -0.0979,0.82233 -0.293,1.14567 -0.18954,0.32333 -0.44882,0.57401 -0.77773,0.75241 -0.32334,0.17281 -0.68858,0.25941 -1.09554,0.25941 -0.40696,0 -0.769,-0.0866 -1.08676,-0.25941 -0.31776,-0.1784 -0.56844,-0.42638 -0.75241,-0.74414 -0.17839,-0.32334 -0.26768,-0.70257 -0.26768,-1.1374 0,-0.44041 0.092,-0.82233 0.27595,-1.14567 0.18954,-0.32333 0.44561,-0.57132 0.76895,-0.74414 0.32333,-0.17839 0.68589,-0.26768 1.08727,-0.26768 z m 5.12579,0 c 0.32891,0 0.60807,0.0699 0.83664,0.20929 0.23414,0.13937 0.4122,0.34271 0.53485,0.6103 0.12822,0.26201 0.19223,0.58851 0.19223,0.97875 v 2.44171 h -1.07848 v -2.2996 c 0,-0.32334 -0.064,-0.56594 -0.19224,-0.72761 -0.12822,-0.16167 -0.32079,-0.24236 -0.57722,-0.24236 -0.26202,0 -0.46267,0.0834 -0.60204,0.25063 -0.13379,0.16167 -0.2005,0.40427 -0.2005,0.72761 v 2.29133 h -1.07022 v -4.18114 h 0.96997 l 0.0749,0.42633 c 0.13379,-0.15052 0.2957,-0.26778 0.48524,-0.3514 0.19512,-0.0892 0.40385,-0.13384 0.62684,-0.13384 z m 12.78578,0 c 0.40138,0 0.76393,0.0893 1.08727,0.26768 0.32334,0.17282 0.57992,0.42081 0.76946,0.74414 0.18954,0.31776 0.28422,0.6943 0.28422,1.12913 0,0.44041 -0.0974,0.82233 -0.29249,1.14567 -0.18954,0.32333 -0.44881,0.57401 -0.77773,0.75241 -0.32333,0.17281 -0.68858,0.25941 -1.09554,0.25941 -0.40695,0 -0.76951,-0.0866 -1.08727,-0.25941 -0.31776,-0.1784 -0.56844,-0.42638 -0.75241,-0.74414 -0.17839,-0.32334 -0.26768,-0.70257 -0.26768,-1.1374 0,-0.44041 0.092,-0.82233 0.27595,-1.14567 0.18954,-0.32333 0.44613,-0.57132 0.76946,-0.74414 0.32334,-0.17839 0.68538,-0.26768 1.08676,-0.26768 z m 7.76852,0 c 0.40138,0 0.75534,0.0866 1.06195,0.25941 0.30661,0.17282 0.54382,0.41542 0.71106,0.72761 0.17282,0.30661 0.2589,0.66595 0.2589,1.07848 0,0.0613 -0.005,0.13125 -0.0165,0.20929 -0.006,0.0725 -0.0142,0.15048 -0.0253,0.2341 h -2.87631 c 0.0223,0.17839 0.0782,0.3317 0.16743,0.45992 0.0948,0.12264 0.20882,0.22001 0.34261,0.29249 0.13937,0.0669 0.29537,0.10025 0.46819,0.10025 0.20627,0 0.39024,-0.0414 0.5519,-0.12506 0.16725,-0.0836 0.2872,-0.19819 0.35967,-0.34313 l 0.94516,0.28422 c -0.16724,0.35679 -0.41574,0.63274 -0.74465,0.82786 -0.32891,0.19511 -0.70763,0.293 -1.13688,0.293 -0.41811,0 -0.78605,-0.092 -1.10381,-0.27595 -0.31776,-0.18397 -0.56627,-0.44055 -0.74466,-0.76946 -0.17282,-0.32891 -0.2589,-0.70814 -0.2589,-1.1374 0,-0.41253 0.0861,-0.77726 0.2589,-1.09502 0.17839,-0.31776 0.42099,-0.56627 0.7276,-0.74466 0.30662,-0.18397 0.65788,-0.27595 1.05369,-0.27595 z m -36.068086,0.0232 c 0.09338,0.001 0.189246,0.0134 0.286804,0.0357 v 1.00355 c -0.150518,-0.0502 -0.309731,-0.0641 -0.476973,-0.0419 -0.161668,0.0223 -0.314977,0.0804 -0.459921,0.17518 -0.139369,0.0948 -0.256112,0.2314 -0.350883,0.40979 -0.0892,0.17282 -0.133842,0.39336 -0.133842,0.66095 v 1.97352 h -1.070735 v -4.18114 h 0.969966 l 0.07545,0.53485 c 0.11707,-0.14494 0.248314,-0.26169 0.393258,-0.35088 0.150518,-0.0948 0.3146,-0.15879 0.492993,-0.19224 0.0892,-0.0195 0.180508,-0.0288 0.273885,-0.0274 z m -25.853719,0.0357 h 1.23765 l 0.84491,1.28777 0.852661,-1.28777 h 1.237651 l -1.471745,2.08204 1.471745,2.0991 h -1.237651 l -0.852661,-1.29656 -0.84491,1.29656 h -1.23765 l 1.463476,-2.0991 z m 20.796663,0.85266 c -0.139369,0 -0.270096,0.0366 -0.392741,0.10904 -0.122644,0.0669 -0.228614,0.16157 -0.31781,0.28422 -0.08362,0.12264 -0.139558,0.26466 -0.167431,0.42633 h 1.739428 c -0.0056,-0.1561 -0.04753,-0.29542 -0.125573,-0.41806 -0.07805,-0.12822 -0.180806,-0.2256 -0.309025,-0.29249 -0.12822,-0.0725 -0.270754,-0.10904 -0.426848,-0.10904 z m 41.125142,0 c -0.13937,0 -0.2701,0.0366 -0.39274,0.10904 -0.12265,0.0669 -0.22862,0.16157 -0.31781,0.28422 -0.0836,0.12264 -0.13956,0.26466 -0.16744,0.42633 h 1.73943 c -0.006,-0.1561 -0.0475,-0.29542 -0.12557,-0.41806 -0.078,-0.12822 -0.18132,-0.2256 -0.30954,-0.29249 -0.12822,-0.0725 -0.27024,-0.10904 -0.42633,-0.10904 z m -25.69663,0.0501 c -0.17281,0 -0.33472,0.0446 -0.48524,0.13384 -0.14494,0.0836 -0.26168,0.21486 -0.35088,0.39326 -0.0892,0.17281 -0.13384,0.39552 -0.13384,0.66869 0,0.26201 0.0414,0.48255 0.12505,0.66094 0.0892,0.17282 0.20646,0.30354 0.3514,0.39274 0.14495,0.0836 0.30364,0.12557 0.47646,0.12557 0.17282,0 0.33742,-0.042 0.49351,-0.12557 0.15609,-0.0892 0.28413,-0.21992 0.38447,-0.39274 0.10035,-0.17839 0.1509,-0.40432 0.1509,-0.67748 0,-0.26201 -0.0473,-0.47934 -0.14211,-0.65215 -0.0948,-0.1784 -0.22063,-0.30964 -0.37672,-0.39326 -0.15052,-0.0892 -0.3146,-0.13384 -0.493,-0.13384 z m 17.91157,0 c -0.17282,0 -0.33472,0.0446 -0.48524,0.13384 -0.14494,0.0836 -0.26169,0.21486 -0.35088,0.39326 -0.0892,0.17281 -0.13384,0.39552 -0.13384,0.66869 0,0.26201 0.0419,0.48255 0.12557,0.66094 0.0892,0.17282 0.20594,0.30354 0.35088,0.39274 0.14495,0.0836 0.30416,0.12557 0.47698,0.12557 0.17281,0 0.3369,-0.042 0.49299,-0.12557 0.15609,-0.0892 0.28464,-0.21992 0.38499,-0.39274 0.10034,-0.17839 0.15038,-0.40432 0.15038,-0.67748 0,-0.26201 -0.0473,-0.47934 -0.14211,-0.65215 -0.0948,-0.1784 -0.22011,-0.30964 -0.37621,-0.39326 -0.15052,-0.0892 -0.31512,-0.13384 -0.49351,-0.13384 z m -49.336521,0.4687 h 3.528466 v 0.95291 h -3.528466 z m 24.400581,0.99477 -0.90331,0.11731 c -0.18396,0.0223 -0.32329,0.0777 -0.41806,0.16691 -0.09477,0.0836 -0.14211,0.1869 -0.14211,0.30954 0,0.11707 0.04734,0.21766 0.14211,0.30128 0.09477,0.078 0.22871,0.11679 0.40153,0.11679 0.19511,0 0.35971,-0.036 0.49351,-0.10852 0.13936,-0.0725 0.24533,-0.17844 0.31781,-0.31781 0.0725,-0.13937 0.10852,-0.31205 0.10852,-0.51832 z" /></g></svg>
